<?xml version="1.0" encoding="utf-8"?>
<!-- Generator: Adobe Illustrator 21.0.0, SVG Export Plug-In . SVG Version: 6.00 Build 0)  -->
<svg version="1.1" id="Layer_1" xmlns="http://www.w3.org/2000/svg" xmlns:xlink="http://www.w3.org/1999/xlink" x="0px" y="0px"
	 viewBox="0 0 1024 134.8" style="enable-background:new 0 0 1024 134.8;" xml:space="preserve">
<style type="text/css">
	.st0{fill:#FEE075;}
	.st1{fill:#FEC206;}
</style>
<title>Beer</title>
<desc>Created with Sketch.</desc>
<g id="Page-1">
	<g id="Desktop-Copy-2" transform="translate(0.000000, -826.000000)">
		<g id="Beer" transform="translate(0.000000, 826.000000)">
			<path id="Rectangle-2-Copy" class="st0" d="M1024,71.3c0,0-34.7-40.4-172-31.8S717.5,71.3,608,71.3S448.5,49,364,43.8
				s-168.7,10-230,13.5S0,50.9,0,50.9v80.5h1024"/>
			<path id="Rectangle-2" class="st1" d="M0,95c0,0,101.7-21.6,239-14.8c137.3,6.9,146.5,32.5,256,32.5s126.5-28.4,211-32.5
				c84.5-4.2,122.7,17.1,184,20s134-5.2,134-5.2v39.8H0V95z"/>
		</g>
	</g>
</g>
</svg>
