<?xml version="1.0" encoding="utf-8"?>
<!-- Generator: Adobe Illustrator 21.0.0, SVG Export Plug-In . SVG Version: 6.00 Build 0)  -->
<svg version="1.1" id="Layer_1" xmlns="http://www.w3.org/2000/svg" xmlns:xlink="http://www.w3.org/1999/xlink" x="0px" y="0px"
	 viewBox="0 0 135 166.5" style="enable-background:new 0 0 135 166.5;" xml:space="preserve">
<style type="text/css">
	.st0{fill:#320046;}
	.st1{filter:url(#Adobe_OpacityMaskFilter);}
	.st2{fill:#FFFFFF;}
	.st3{mask:url(#mask-2);fill:#320046;}
	.st4{fill:#FEC206;}
	.st5{fill:#E6E6E9;}
	.st6{fill:#E6AA09;}
	.st7{fill:#FFE79C;}
	.st8{filter:url(#Adobe_OpacityMaskFilter_1_);}
	.st9{mask:url(#mask-4);fill:#320046;}
</style>
<title>Group</title>
<desc>Created with Sketch.</desc>
<g id="Page-1_1_">
	<g id="Desktop-HD-Copy" transform="translate(-532.000000, -58.000000)">
		<g id="Group" transform="translate(532.000000, 58.000000)">
			<g id="Page-1">
				<path id="Fill-1" class="st0" d="M0.4,124.5l0-6.3c0-1.9,0.5-3.4,1.6-4.3c1.1-0.9,2.4-1.4,4.1-1.4c1.8,0,3.2,0.4,4.3,1.3
					c1.1,0.8,1.7,2,1.7,3.5c0,0.7-0.1,1.1-0.4,1.4c-0.3,0.2-0.8,0.4-1.4,0.4c-1.2,0-1.8-0.4-1.9-1.1c0-1.4-0.8-2.2-2.1-2.2
					c-1.4,0-2.2,0.8-2.2,2.4l0,6.3c0,1.6,0.7,2.4,2.2,2.4c0.4,0,0.8-0.1,1.1-0.2c0.3-0.1,0.5-0.4,0.6-0.7c0.1-0.3,0.2-0.5,0.3-0.7
					c0-0.2,0.1-0.5,0.1-0.8c0.1-0.7,0.7-1.1,1.8-1.1c0.7,0,1.2,0.1,1.5,0.4c0.3,0.2,0.4,0.7,0.4,1.4c0,1.5-0.6,2.8-1.7,3.7
					c-1.1,0.9-2.6,1.3-4.3,1.3c-1.7,0-3.1-0.5-4.1-1.4C1,127.9,0.4,126.5,0.4,124.5"/>
				<path id="Fill-3" class="st0" d="M14.1,128.9l0-15.2c0-0.4,0.2-0.6,0.6-0.8c0.4-0.2,0.8-0.3,1.3-0.3c0.5,0,0.9,0.1,1.3,0.3
					c0.4,0.2,0.5,0.5,0.5,0.8l0,5.9l4.8,0l0-5.9c0-0.4,0.2-0.6,0.6-0.8c0.4-0.2,0.8-0.3,1.3-0.3c0.5,0,0.9,0.1,1.3,0.3
					c0.4,0.2,0.5,0.5,0.5,0.8l0,15.2c0,0.4-0.2,0.6-0.6,0.8c-0.4,0.2-0.8,0.3-1.3,0.3c-0.5,0-0.9-0.1-1.3-0.3
					c-0.4-0.2-0.5-0.5-0.5-0.8l0-6.5l-4.8,0l0,6.5c0,0.4-0.2,0.6-0.6,0.8s-0.8,0.3-1.3,0.3c-0.5,0-0.9-0.1-1.3-0.3
					C14.2,129.5,14.1,129.3,14.1,128.9"/>
				<path id="Fill-5" class="st0" d="M32.8,123.5l3.5,0l-1.7-6.4L32.8,123.5z M27.6,128.5c0,0,0-0.1,0-0.3l4.5-14.6
					c0.1-0.4,0.4-0.7,0.9-0.9c0.5-0.2,1-0.3,1.6-0.3c0.6,0,1.1,0.1,1.6,0.3c0.5,0.2,0.7,0.5,0.9,0.9l4.5,14.6c0,0.1,0,0.2,0,0.3
					c0,0.4-0.3,0.8-0.8,1.1c-0.5,0.3-1.1,0.5-1.6,0.5c-0.7,0-1.1-0.2-1.2-0.7l-0.8-3l-5,0l-0.8,3c-0.1,0.5-0.5,0.7-1.2,0.7
					c-0.6,0-1.1-0.2-1.6-0.5C27.9,129.3,27.6,128.9,27.6,128.5L27.6,128.5z"/>
				<path id="Fill-7" class="st0" d="M46.7,120.3l2.4,0c0.7,0,1.2-0.2,1.6-0.5c0.4-0.3,0.6-0.9,0.6-1.7c0-0.8-0.2-1.4-0.5-1.7
					c-0.4-0.3-0.9-0.5-1.6-0.5l-2.4,0L46.7,120.3z M42.9,128.9l0-15.2c0-0.3,0.1-0.6,0.3-0.8c0.2-0.2,0.5-0.3,0.8-0.3l4.9,0
					c3.9,0,5.9,1.7,5.9,5.1c0,2.5-1,4.1-2.9,4.8l2.9,5.3c0.1,0.1,0.1,0.3,0.1,0.4c0,0.5-0.3,0.9-0.8,1.3c-0.5,0.4-1,0.6-1.6,0.6
					c-0.6,0-1-0.2-1.2-0.7l-3.3-6.4l-1.6,0l0,5.8c0,0.4-0.2,0.6-0.6,0.8c-0.4,0.2-0.8,0.3-1.3,0.3c-0.5,0-0.9-0.1-1.3-0.3
					C43.1,129.6,42.9,129.3,42.9,128.9L42.9,128.9z"/>
				<path id="Fill-9" class="st0" d="M56.9,128.9l0-15.2c0-0.4,0.2-0.6,0.6-0.8c0.4-0.2,0.8-0.3,1.3-0.3c0.5,0,0.9,0.1,1.3,0.3
					c0.4,0.2,0.5,0.5,0.5,0.8l0,13.1l5.4,0c0.3,0,0.6,0.2,0.8,0.5c0.2,0.3,0.3,0.7,0.3,1.1c0,0.4-0.1,0.8-0.3,1.1
					c-0.2,0.3-0.5,0.5-0.8,0.5l-7.6,0c-0.4,0-0.8-0.1-1.1-0.3C57,129.6,56.9,129.3,56.9,128.9"/>
				<path id="Fill-11" class="st0" d="M68.6,128.9l0-15.2c0-0.4,0.2-0.6,0.5-0.8c0.3-0.2,0.7-0.3,1.1-0.3l8.5,0
					c0.4,0,0.6,0.2,0.8,0.5c0.2,0.3,0.3,0.7,0.3,1.1c0,0.5-0.1,0.9-0.3,1.2c-0.2,0.3-0.5,0.5-0.8,0.5l-6.4,0l0,4l3.6,0
					c0.4,0,0.6,0.1,0.8,0.4c0.2,0.3,0.3,0.6,0.3,1c0,0.4-0.1,0.7-0.3,1c-0.2,0.3-0.5,0.4-0.8,0.4l-3.6,0l0,4.1l6.4,0
					c0.4,0,0.6,0.2,0.8,0.5c0.2,0.3,0.3,0.7,0.3,1.2c0,0.4-0.1,0.8-0.3,1.1c-0.2,0.3-0.5,0.5-0.8,0.5l-8.5,0c-0.4,0-0.8-0.1-1.1-0.3
					C68.8,129.6,68.6,129.3,68.6,128.9"/>
				<path id="Fill-13" class="st0" d="M80.7,127.2c0-0.4,0.2-0.9,0.5-1.3c0.3-0.4,0.7-0.7,1.1-0.7c0.2,0,0.5,0.1,0.8,0.3
					c0.3,0.2,0.6,0.4,0.8,0.6s0.6,0.4,1,0.6c0.4,0.2,0.9,0.3,1.4,0.3c0.6,0,1.2-0.1,1.6-0.4c0.5-0.3,0.7-0.7,0.7-1.2
					c0-0.5-0.3-1-0.8-1.4c-0.5-0.4-1.1-0.8-1.9-1.1c-0.7-0.3-1.5-0.7-2.2-1.1c-0.7-0.4-1.4-1-1.9-1.7c-0.5-0.7-0.8-1.6-0.8-2.7
					c0-1.7,0.6-2.9,1.8-3.8c1.2-0.8,2.6-1.3,4.3-1.3c0.4,0,0.8,0,1.3,0.1c0.5,0,1,0.1,1.5,0.3c0.6,0.1,1,0.4,1.4,0.7
					c0.4,0.3,0.5,0.7,0.5,1.1c0,0.4-0.1,0.9-0.4,1.3c-0.3,0.5-0.6,0.7-1.1,0.7c-0.2,0-0.6-0.2-1.2-0.5c-0.6-0.3-1.3-0.5-2.1-0.5
					c-0.8,0-1.4,0.1-1.8,0.4c-0.4,0.3-0.6,0.6-0.6,1c0,0.4,0.2,0.7,0.6,1c0.4,0.3,0.8,0.6,1.4,0.8c0.6,0.2,1.2,0.5,1.8,0.8
					c0.7,0.3,1.3,0.7,1.8,1.1c0.6,0.4,1,1,1.4,1.7c0.4,0.7,0.6,1.6,0.6,2.5c0,1.6-0.6,2.9-1.7,3.8c-1.1,0.9-2.5,1.4-4.3,1.4
					c-1.5,0-2.9-0.3-4-1C81.3,128.7,80.7,128,80.7,127.2"/>
				<path id="Fill-15" class="st0" d="M93.2,114.3c0-0.4,0.1-0.8,0.3-1.1c0.2-0.3,0.5-0.5,0.8-0.5l10.3,0c0.4,0,0.6,0.2,0.8,0.5
					c0.2,0.3,0.3,0.7,0.3,1.1c0,0.5-0.1,0.9-0.3,1.2c-0.2,0.3-0.5,0.5-0.8,0.5l-3.3,0l0,13.1c0,0.4-0.2,0.7-0.6,0.9
					c-0.4,0.2-0.8,0.3-1.3,0.3c-0.5,0-0.9-0.1-1.3-0.3c-0.4-0.2-0.5-0.5-0.5-0.9l0-13.1l-3.3,0c-0.4,0-0.6-0.2-0.8-0.5
					C93.3,115.1,93.2,114.7,93.2,114.3"/>
				<path id="Fill-17" class="st0" d="M110.5,124.6c0,1.6,0.7,2.4,2.1,2.4c1.4,0,2.2-0.8,2.2-2.4l0-6.3c0-1.6-0.7-2.4-2.1-2.4
					c-1.4,0-2.1,0.8-2.1,2.4L110.5,124.6z M106.8,124.6l0-6.3c0-1.9,0.5-3.4,1.6-4.3c1.1-0.9,2.5-1.4,4.3-1.4c1.8,0,3.2,0.5,4.3,1.4
					c1.1,0.9,1.6,2.3,1.6,4.3l0,6.3c0,1.9-0.5,3.4-1.6,4.3c-1.1,0.9-2.5,1.4-4.3,1.4c-1.8,0-3.2-0.5-4.3-1.4
					C107.3,128,106.8,126.6,106.8,124.6L106.8,124.6z"/>
				<path id="Fill-19" class="st0" d="M120.9,129l0-15.2c0-0.4,0.2-0.6,0.6-0.8c0.4-0.2,0.8-0.3,1.3-0.3c0.7,0,1.2,0.1,1.6,0.3
					c0.3,0.2,0.7,0.7,1.2,1.6l3.9,7.4l0-8.1c0-0.4,0.2-0.6,0.6-0.8c0.4-0.2,0.8-0.3,1.3-0.3c0.5,0,0.9,0.1,1.3,0.3
					c0.4,0.2,0.5,0.5,0.5,0.8l0,15.2c0,0.4-0.2,0.6-0.6,0.8c-0.4,0.2-0.8,0.3-1.3,0.3c-1,0-1.7-0.3-2.1-1l-4.5-8.3l0,8.1
					c0,0.4-0.2,0.6-0.6,0.8c-0.4,0.2-0.8,0.3-1.3,0.3c-0.5,0-0.9-0.1-1.3-0.3C121.1,129.6,120.9,129.4,120.9,129"/>
				<path id="Fill-21" class="st0" d="M6.4,160.1H10c2.4,0,3.7-1.4,3.7-4.1v-10.6c0-2.7-1.2-4.1-3.7-4.1H6.4V160.1z M0,163.7v-26
					c0-0.5,0.3-1,0.8-1.3c0.5-0.4,1.2-0.6,2-0.6H10c3,0,5.5,0.8,7.3,2.3c1.8,1.5,2.7,4,2.7,7.3V156c0,3.3-0.9,5.7-2.7,7.3
					c-1.8,1.5-4.3,2.3-7.3,2.3H2.8c-0.8,0-1.5-0.2-2-0.6C0.3,164.6,0,164.2,0,163.7L0,163.7z"/>
				<path id="Fill-23" class="st0" d="M30.4,148.9h4c1.2,0,2.1-0.3,2.7-0.9c0.6-0.6,0.9-1.6,0.9-2.9c0-1.4-0.3-2.3-0.9-2.9
					c-0.6-0.6-1.5-0.9-2.7-0.9h-4V148.9z M24.1,163.6v-25.9c0-0.5,0.2-1,0.6-1.3c0.4-0.4,0.8-0.6,1.4-0.6h8.4c6.7,0,10,2.9,10,8.7
					c0,4.2-1.6,7-4.9,8.3l5,9c0.1,0.2,0.2,0.4,0.2,0.7c0,0.8-0.4,1.5-1.3,2.2c-0.9,0.7-1.8,1.1-2.7,1.1c-1,0-1.6-0.4-2-1.2
					l-5.6-10.8h-2.7v9.8c0,0.6-0.3,1.1-0.9,1.4c-0.6,0.3-1.4,0.5-2.2,0.5c-0.9,0-1.6-0.2-2.2-0.5C24.4,164.7,24.1,164.3,24.1,163.6
					L24.1,163.6z"/>
				<path id="Fill-25" class="st0" d="M47.9,163.6v-25.9c0-0.6,0.3-1.1,0.9-1.4c0.6-0.3,1.4-0.5,2.2-0.5c0.9,0,1.6,0.2,2.2,0.5
					c0.6,0.3,0.9,0.8,0.9,1.4v25.9c0,0.6-0.3,1.1-0.9,1.4c-0.6,0.3-1.4,0.5-2.2,0.5c-0.9,0-1.6-0.2-2.2-0.5
					C48.2,164.7,47.9,164.3,47.9,163.6"/>
				<path id="Fill-27" class="st0" d="M58.7,163.6v-25.9c0-0.6,0.3-1.1,0.9-1.4c0.6-0.3,1.4-0.5,2.2-0.5c1.2,0,2.1,0.2,2.7,0.5
					c0.6,0.4,1.2,1.2,2,2.7l6.6,12.6v-13.9c0-0.6,0.3-1.1,0.9-1.4c0.6-0.3,1.4-0.5,2.2-0.5c0.9,0,1.6,0.2,2.2,0.5
					c0.6,0.3,0.9,0.8,0.9,1.4v25.9c0,0.6-0.3,1.1-0.9,1.4c-0.6,0.3-1.4,0.5-2.2,0.5c-1.7,0-2.9-0.6-3.5-1.7L65,149.8v13.9
					c0,0.6-0.3,1.1-0.9,1.4c-0.6,0.3-1.4,0.5-2.2,0.5c-0.9,0-1.6-0.2-2.2-0.5C59,164.7,58.7,164.3,58.7,163.6"/>
				<path id="Fill-29" class="st0" d="M83.9,163.6v-25.9c0-0.6,0.3-1.1,0.9-1.4c0.6-0.3,1.4-0.5,2.2-0.5c0.9,0,1.6,0.2,2.2,0.5
					c0.6,0.3,0.9,0.8,0.9,1.4v9.8l7.6-10.8c0.4-0.6,1-0.9,1.7-0.9c0.8,0,1.7,0.3,2.5,1c0.8,0.7,1.2,1.4,1.2,2.2
					c0,0.4-0.1,0.8-0.4,1.2l-6.7,8.4l8.4,12.9c0.2,0.4,0.3,0.7,0.3,1.1c0,0.8-0.4,1.5-1.2,2.2c-0.8,0.7-1.7,1-2.6,1
					c-1,0-1.7-0.4-2.2-1.2l-7-10.6l-1.7,2.2v7.4c0,0.6-0.3,1.1-0.9,1.4c-0.6,0.3-1.4,0.5-2.2,0.5c-0.9,0-1.6-0.2-2.2-0.5
					C84.2,164.7,83.9,164.3,83.9,163.6"/>
				<path id="Fill-31" class="st0" d="M105.6,160.7c0-0.8,0.3-1.5,0.8-2.3c0.6-0.8,1.2-1.1,1.9-1.1c0.4,0,0.9,0.2,1.4,0.5
					c0.5,0.3,1,0.7,1.4,1.1c0.4,0.4,1,0.8,1.8,1.1c0.8,0.3,1.6,0.5,2.4,0.5c1.1,0,2-0.2,2.8-0.7c0.8-0.4,1.2-1.1,1.2-2
					c0-0.9-0.4-1.7-1.3-2.4c-0.9-0.7-2-1.3-3.2-1.9c-1.3-0.6-2.5-1.2-3.8-1.9c-1.3-0.7-2.4-1.7-3.2-3c-0.9-1.3-1.3-2.8-1.3-4.6
					c0-2.9,1-5,3.1-6.5c2-1.4,4.5-2.1,7.4-2.1c0.7,0,1.4,0,2.2,0.1c0.8,0.1,1.6,0.2,2.6,0.5c1,0.2,1.8,0.6,2.4,1.2
					c0.6,0.5,0.9,1.2,0.9,1.9c0,0.7-0.2,1.5-0.7,2.2c-0.4,0.8-1.1,1.2-1.9,1.2c-0.3,0-1-0.3-2.1-0.8c-1.1-0.5-2.2-0.8-3.5-0.8
					c-1.4,0-2.4,0.2-3.1,0.7c-0.7,0.5-1,1.1-1,1.7c0,0.6,0.3,1.2,1,1.7c0.6,0.5,1.4,1,2.4,1.3c1,0.4,2,0.8,3.1,1.4
					c1.1,0.6,2.2,1.2,3.1,1.9c1,0.7,1.7,1.7,2.4,2.9c0.6,1.3,1,2.7,1,4.3c0,2.8-0.9,5-2.8,6.5c-1.9,1.6-4.3,2.3-7.4,2.3
					c-2.6,0-4.9-0.5-6.9-1.6C106.6,163.3,105.6,162.1,105.6,160.7"/>
				<g id="Group-35" transform="translate(128.039836, 120.250922)">
					<g id="Clip-34">
					</g>
					<defs>
						<filter id="Adobe_OpacityMaskFilter" filterUnits="userSpaceOnUse" x="0.1" y="15.5" width="6.3" height="30.1">
							<feColorMatrix  type="matrix" values="1 0 0 0 0  0 1 0 0 0  0 0 1 0 0  0 0 0 1 0"/>
						</filter>
					</defs>
					<mask maskUnits="userSpaceOnUse" x="0.1" y="15.5" width="6.3" height="30.1" id="mask-2">
						<g class="st1">
							<polygon id="path-1" class="st2" points="6.5,45.6 6.5,15.5 0.1,15.5 0.1,45.6 							"/>
						</g>
					</mask>
					<path id="Fill-33" class="st3" d="M0.2,18c0-0.8,0.3-1.4,0.9-1.8c0.6-0.4,1.4-0.7,2.3-0.7c0.8,0,1.5,0.2,2,0.7
						C6,16.7,6.2,17.3,6.2,18c0,1.6,0,4.4-0.1,8.4C6,30.3,6,33.1,6,34.7c0,0.6-0.3,1-0.8,1.3c-0.5,0.3-1.1,0.5-1.7,0.5
						c-1.7,0-2.6-0.6-2.6-1.8c0-1.6-0.1-4.4-0.3-8.3C0.3,22.4,0.2,19.7,0.2,18 M0.1,42.4c0-0.9,0.3-1.6,1-2.2
						c0.6-0.6,1.4-0.9,2.4-0.9c0.8,0,1.5,0.3,2.1,0.9c0.6,0.6,0.9,1.4,0.9,2.2c0,0.8-0.3,1.6-0.9,2.2c-0.6,0.6-1.3,0.9-2.1,0.9
						c-0.9,0-1.7-0.3-2.4-0.9C0.5,44,0.1,43.3,0.1,42.4"/>
				</g>
				<polygon id="Fill-36" class="st4" points="116.1,88.6 87.2,96.9 65.7,45.2 106.6,33.4 				"/>
				<path id="Fill-38" class="st2" d="M106.4,34l-1.7,0.5c0-0.9-0.1-1.7-0.3-2.6c-1.4-4.9-6.7-7.6-11.9-6.1c-2.7,0.8-4.8,2.6-6,4.8
					c0-0.1,0-0.2-0.1-0.2c-1-3.6-5-5.7-8.8-4.5c-3.8,1.1-6.1,4.9-5,8.6c0.1,0.2,0.1,0.4,0.2,0.6c-0.5,0-1.1,0.1-1.6,0.3
					c-3.6,1-5.7,4.6-4.7,8c0.2,0.7,0.6,1.4,1,2l-1.7,0.5l4.4,9.8c0,0,2.9-4,8.1-5.5c6.2-1.8,19.3-0.6,23.4-1.7
					c4.6-1.3,6.4-3.8,6.4-3.8L106.4,34z"/>
				<polygon id="Fill-40" class="st5" points="105.2,34.5 93.1,37.3 96,48.6 106.3,46.3 				"/>
				<polygon id="Fill-42" class="st6" points="116,88.6 106.7,91.3 96.3,49.5 108.8,46.1 				"/>
				<path id="Fill-44" class="st7" d="M79.3,64.2c-0.6,0-1.2-0.4-1.5-1l-2.2-5.5c-0.3-0.8,0.1-1.7,0.9-2c0.8-0.3,1.7,0.1,2,0.9
					l2.2,5.5c0.3,0.8-0.1,1.7-0.9,2C79.7,64.2,79.5,64.2,79.3,64.2"/>
				<path id="Fill-46" class="st7" d="M90.2,92.5c-0.6,0-1.2-0.4-1.5-1l-7.8-19.8c-0.3-0.8,0.1-1.7,0.9-2c0.8-0.3,1.7,0.1,2,0.9
					l7.9,19.8c0.3,0.8-0.1,1.7-0.9,2C90.6,92.5,90.4,92.5,90.2,92.5"/>
				<polygon id="Fill-48" class="st4" points="47.2,97.7 18,90.5 25.2,35 66.6,45.2 				"/>
				<path id="Fill-50" class="st2" d="M64.4,45.2c0.4-0.7,0.8-1.5,1-2.4c1.2-4.9-2-9.9-7.2-11.2c-2.7-0.7-5.5-0.2-7.6,1.2
					c0-0.1,0-0.2,0.1-0.2c0.9-3.7-1.5-7.4-5.4-8.4c-3.9-1-7.8,1.2-8.7,4.9c-0.1,0.2-0.1,0.4-0.1,0.6c-0.5-0.2-1-0.4-1.5-0.6
					c-3.6-0.9-7.2,1.2-8.1,4.6c-0.2,0.8-0.2,1.5-0.1,2.2L25,35.5l-1.1,10.7c0,0,4.5-2,9.7-0.7c6.3,1.5,17,9.2,21.1,10.2
					c4.7,1.1,7.4-0.1,7.4-0.1l4-10L64.4,45.2z"/>
				<polygon id="Fill-52" class="st5" points="65.2,45.7 53.4,42.1 50.2,53.4 60.3,56.5 				"/>
				<polygon id="Fill-54" class="st6" points="47.4,98 38.1,95.6 50,54.3 62.5,57.6 				"/>
				<path id="Fill-56" class="st0" d="M38.7,41.5C38.8,41.5,38.8,41.6,38.7,41.5c0.1,0,0.2,0,0.2,0.1l3.6,0.9l4.4,1.1l14.5,3.6
					l1.2,0.3l-0.4,1.1l-1.9,4.9c-0.4,0.1-1,0.1-1.6,0.1c-1,0-2.1-0.1-3.2-0.4c-1.5-0.4-4.7-2.2-7.8-3.9c-2.9-1.7-6.3-3.5-9.3-4.8
					c-1.5-0.7-2.9-1.1-4-1.4c0,0-0.1,0-0.1,0l-0.1,0c-1.3-0.3-2.7-0.5-4.1-0.5c-1,0-2,0.1-3,0.2l0-0.2l0.4-3.1l0.1-0.5l1.7,0.4
					l9.5,2.3C38.7,41.5,38.7,41.5,38.7,41.5L38.7,41.5z M37.7,32c0.8-0.4,1.3-1.1,1.4-2c0-0.1,0-0.3,0.1-0.4c0.3-1.1,1-2,2-2.5
					c0.7-0.4,1.5-0.6,2.3-0.6c0.4,0,0.8,0,1.2,0.1c2.5,0.6,4,2.9,3.5,5.2c0,0,0,0.1,0,0.1l0,0c-0.3,1,0.1,2.2,0.9,2.8
					c0.5,0.3,1,0.5,1.6,0.5c0.5,0,1-0.1,1.4-0.4c1.1-0.7,2.4-1.1,3.8-1.1c0.6,0,1.2,0.1,1.8,0.2c1.9,0.5,3.4,1.6,4.4,3.1
					c0.9,1.3,1.2,2.9,1,4.3l-33.2-8.2c0.3-0.5,0.8-1,1.4-1.3c0.6-0.4,1.3-0.5,2.1-0.5c0.4,0,0.7,0,1.1,0.1c0.3,0.1,0.7,0.2,1,0.4
					c0.4,0.2,0.8,0.3,1.2,0.3C36.9,32.3,37.3,32.2,37.7,32L37.7,32z M20.9,88.5l5.3-40.4c0.9-0.2,2.2-0.5,3.8-0.5c1,0,2.1,0.1,3,0.4
					c3.1,0.8,7.8,3.4,12,5.7c3.7,2.1,7,3.9,9.2,4.5c1.5,0.4,3,0.6,4.5,0.6c0.1,0,0.1,0,0.2,0L45.5,94.6L20.9,88.5z M100.8,45.9
					c-1.5,0.4-5.2,0.5-8.7,0.5c-5.1,0.1-10.9,0.1-14.6,1.2c-2.8,0.8-4.9,2.2-6.5,3.4l-0.1-0.2l-1.4-3.4l34.8-10.1l0.9,6.4
					C104.4,44.3,103,45.2,100.8,45.9L100.8,45.9z M74.9,36.4c0.5-0.7,0.5-1.6,0.2-2.4c-0.1-0.1-0.1-0.2-0.1-0.4
					c-0.3-1-0.2-2.2,0.4-3.2c0.6-1,1.6-1.8,2.8-2.2c0.5-0.1,0.9-0.2,1.4-0.2c0.7,0,1.5,0.2,2.1,0.5c1,0.5,1.7,1.4,2.1,2.4
					c0,0,0,0.1,0,0.1l0,0c0.3,1,1.2,1.8,2.2,2c0.1,0,0.2,0,0.3,0c1,0,1.9-0.5,2.3-1.4c0.9-1.7,2.5-3,4.4-3.5
					c0.7-0.2,1.4-0.3,2.1-0.3c1.1,0,2.3,0.3,3.3,0.8c1.4,0.7,2.5,1.9,3,3.3l-32.9,9.5c0-1.7,1.2-3.2,3-3.8c0.3-0.1,0.7-0.2,1-0.2
					C73.7,37.6,74.5,37.1,74.9,36.4L74.9,36.4z M88.7,93.8L73.1,56.2c1-1,3-2.7,5.8-3.5c3.1-0.9,8.5-1,13.2-1c4.3,0,8-0.1,10.1-0.7
					c1.6-0.5,3-1.1,4.3-1.8l6.5,37.6L88.7,93.8z M118.6,88.1l-9.5-55.2c-0.1-0.7-0.6-1.4-1.2-1.8c-0.4-0.2-0.8-0.4-1.2-0.4
					c-1.1-2.5-3.1-5.3-5.7-6.7c-1.7-0.9-3.7-1.4-5.7-1.4c-1.2,0-2.4,0.2-3.6,0.5c-1.8,0.5-3.5,1.5-4.9,2.7c-0.7-0.8-1.6-1.5-2.6-2
					c-1.4-0.7-3-1.1-4.5-1.1c-1,0-1.9,0.1-2.9,0.4c-2.5,0.7-4.6,2.3-5.9,4.5c-0.9,1.6-1.4,3.4-1.3,5.2c-1.1,0.4-2.1,1-3,1.8
					c-0.1-0.1-0.2-0.3-0.3-0.4c-1.7-2.7-4.4-4.6-7.6-5.4c-1-0.2-2-0.4-3.1-0.4c-0.9,0-1.7,0.1-2.6,0.3c-0.8-3.5-3.6-6.4-7.3-7.3
					c-0.8-0.2-1.6-0.3-2.5-0.3c-1.7,0-3.4,0.4-4.9,1.3c-1.6,0.9-2.9,2.2-3.7,3.8c-0.5-0.1-1-0.1-1.6-0.1c-1.6,0-3.2,0.4-4.7,1.2
					c-2,1.1-3.4,2.9-4.1,5c-0.2,0.1-0.4,0.2-0.6,0.3c-0.6,0.3-1.3,1-1.4,2.4l-7,55c-0.2,1.3,0.7,2.6,2,2.9l29.2,7.2
					c0.2,0.1,0.4,0.1,0.6,0.1c1.1,0,2.1-0.7,2.5-1.7l16.7-45.1L84.8,98c0.4,1,1.4,1.6,2.4,1.6c0.2,0,0.5,0,0.7-0.1l28.9-8.4
					C118.1,90.7,118.9,89.5,118.6,88.1L118.6,88.1z"/>
				<path id="Fill-58" class="st7" d="M28.3,58.4c-0.1,0-0.2,0-0.2,0c-0.9-0.1-1.4-0.9-1.3-1.8l0.9-5.9c0.1-0.9,0.9-1.4,1.8-1.3
					c0.9,0.1,1.4,0.9,1.3,1.8l-0.9,5.9C29.7,57.9,29,58.4,28.3,58.4"/>
				<path id="Fill-60" class="st7" d="M23.6,88.4c-0.1,0-0.2,0-0.2,0c-0.9-0.1-1.4-0.9-1.3-1.8l3.1-21c0.1-0.9,0.9-1.4,1.8-1.3
					c0.9,0.1,1.4,0.9,1.3,1.8l-3.1,21C25.1,87.9,24.4,88.4,23.6,88.4"/>
				<g id="Group-64" transform="translate(64.374927, 0.096029)">
					<g id="Clip-63">
					</g>
					<defs>
						<filter id="Adobe_OpacityMaskFilter_1_" filterUnits="userSpaceOnUse" x="-0.4" y="-0.1" width="5.3" height="19">
							<feColorMatrix  type="matrix" values="1 0 0 0 0  0 1 0 0 0  0 0 1 0 0  0 0 0 1 0"/>
						</filter>
					</defs>
					<mask maskUnits="userSpaceOnUse" x="-0.4" y="-0.1" width="5.3" height="19" id="mask-4">
						<g class="st8">
							<polygon id="path-3" class="st2" points="4.9,-0.1 -0.4,-0.1 -0.4,19 4.9,19 							"/>
						</g>
					</mask>
					<path id="Fill-62" class="st9" d="M2.3-0.1c-1.5,0-2.6,1.2-2.6,2.6v13.8c0,1.4,1.2,2.6,2.6,2.6s2.6-1.2,2.6-2.6V2.5
						C4.9,1.1,3.7-0.1,2.3-0.1"/>
				</g>
				<path id="Fill-65" class="st0" d="M51,8c-0.5-0.6-1.2-0.9-2-0.9c-0.7,0-1.3,0.2-1.8,0.7c-1.1,1-1.2,2.6-0.2,3.7l8.6,9.5
					c0.5,0.6,1.2,0.9,2,0.9c0.6,0,1.3-0.2,1.8-0.7c0.5-0.5,0.8-1.1,0.9-1.8c0-0.7-0.2-1.4-0.7-1.9L51,8z"/>
				<path id="Fill-67" class="st0" d="M84.9,7.1c-0.5-0.4-1.1-0.7-1.8-0.7c-0.7,0-1.4,0.3-1.9,0.9l-6.8,7.4
					c-0.5,0.5-0.7,1.2-0.7,1.9c0,0.7,0.3,1.3,0.9,1.8c0.5,0.4,1.1,0.7,1.8,0.7c0.7,0,1.4-0.3,1.9-0.9l6.8-7.4
					C86.1,9.7,86,8.1,84.9,7.1"/>
			</g>
		</g>
	</g>
</g>
</svg>
