<?xml version="1.0" encoding="UTF-8" standalone="no"?>
<svg width="141px" height="162px" viewBox="0 0 141 162" version="1.1" xmlns="http://www.w3.org/2000/svg" xmlns:xlink="http://www.w3.org/1999/xlink">
    <!-- Generator: Sketch 43.2 (39069) - http://www.bohemiancoding.com/sketch -->
    <title>Group Copy 2</title>
    <desc>Created with Sketch.</desc>
    <defs></defs>
    <g id="Page-1" stroke="none" stroke-width="1" fill="none" fill-rule="evenodd">
        <g id="Desktop-HD-Copy-6" transform="translate(-86.000000, -60.000000)">
            <g id="Group-Copy-2" transform="translate(85.000000, 60.000000)">
                <g id="Page-1">
                    <g id="chs-favicon" transform="translate(24.729323, 0.000000)">
                        <polygon id="Fill-36" fill="#FEC206" points="91.1910601 79.5928179 65.3476975 87.0766188 46.0753331 40.759928 82.6868683 30.1580443"></polygon>
                        <path d="M82.5476914,30.6844217 L81.0445711,31.1196374 C81.0583958,30.3544313 80.9621257,29.577673 80.7391713,28.8089511 C79.4771033,24.4583012 74.7136197,22.0147649 70.099694,23.3507992 C67.6698172,24.0544773 65.7667865,25.6667593 64.6932369,27.6703084 C64.6753905,27.5999908 64.6585496,27.529422 64.6381896,27.4591044 C63.698111,24.218468 60.1496915,22.3979958 56.7128749,23.393492 C53.275807,24.388737 51.2516218,27.8224957 52.1917004,31.0633833 C52.2467477,31.2529896 52.3115981,31.4370711 52.3839892,31.616632 C51.9076659,31.6419966 51.4250588,31.7211039 50.9447138,31.8602323 C47.7429169,32.7871688 45.8574813,35.9858658 46.7334635,39.0047507 C46.9265064,39.6707588 47.2434687,40.2677049 47.6458927,40.7910687 L46.1156258,41.2343206 L50.0320333,50.0405944 C50.0320333,50.0405944 52.6041787,46.500606 57.2703868,45.1495037 C62.8339425,43.5384774 74.5854271,44.652509 78.2205651,43.5997542 C82.3486159,42.4043551 83.9517766,40.2184826 83.9517766,40.2184826 L82.5476914,30.6844217 Z" id="Fill-38" fill="#FFFFFF"></path>
                        <polygon id="Fill-40" fill="#E6E6E9" points="81.4737648 31.1558007 70.665375 33.6671432 73.2689401 43.7986525 82.4791964 41.7034394"></polygon>
                        <polygon id="Fill-42" fill="#E6AA09" points="91.1014762 79.6188103 82.8458773 82.0096085 73.4963688 44.5958782 84.6938606 41.5280221"></polygon>
                        <path d="M58.2388688,57.7796983 C57.6811056,57.7796983 57.1540081,57.4449364 56.9358294,56.8954546 L54.9644294,51.9310327 C54.6788868,51.2125375 55.0305365,50.3983603 55.7501742,50.1133229 C56.4695605,49.8285367 57.2842114,50.1793712 57.5695027,50.8986197 L59.541154,55.8627906 C59.8264453,56.5815368 59.4747956,57.3954629 58.7554092,57.6805003 C58.5857427,57.7478043 58.4107976,57.7796983 58.2388688,57.7796983" id="Fill-44" fill="#FFE79C"></path>
                        <path d="M68.0740007,83.1199735 C67.5162375,83.1199735 66.98914,82.7852115 66.7709614,82.2357297 L59.7397268,64.5292579 C59.4541842,63.8102605 59.8058339,62.9965856 60.5254716,62.711297 C61.2448579,62.4270131 62.0595089,62.7775965 62.3448001,63.4963427 L69.376286,81.2030657 C69.6615772,81.9218119 69.3099275,82.735738 68.5905412,83.0207754 C68.4208746,83.0880794 68.2459295,83.1199735 68.0740007,83.1199735" id="Fill-46" fill="#FFE79C"></path>
                        <polygon id="Fill-48" fill="#FEC206" points="29.4751044 87.7625166 3.3489641 81.3332286 9.8372656 31.5943313 46.8497166 40.7022174"></polygon>
                        <path d="M44.9461078,40.7145732 C45.3412424,40.0588616 45.6463909,39.3381063 45.838177,38.5608458 C46.9222836,34.1627316 44.0198539,29.666675 39.3556567,28.5189915 C36.8988846,27.9145113 34.4441233,28.3602746 32.5116838,29.5591895 C32.531541,29.4893742 32.551901,29.4195589 32.5697474,29.3484879 C33.3773604,26.0721904 31.2151797,22.7233151 27.7409108,21.868203 C24.2663905,21.013342 20.7948865,22.9759562 19.9872736,26.2522537 C19.9400183,26.4441202 19.9038228,26.6357357 19.8766761,26.8276022 C19.4511272,26.6116268 18.9936558,26.4385953 18.5080324,26.3193065 C15.271548,25.5229598 12.03808,27.350966 11.2857658,30.4027495 C11.1196182,31.0762916 11.0954878,31.7518427 11.1822063,32.4060475 L9.63509844,32.0250768 L8.61961252,41.60836 C8.61961252,41.60836 12.6187167,39.827567 17.3359505,40.9883095 C22.9603349,42.3725615 32.5800531,49.2076826 36.255157,50.112017 C40.4279495,51.138905 42.9103601,50.046471 42.9103601,50.046471 L46.4658176,41.0885121 L44.9461078,40.7145732 Z" id="Fill-50" fill="#FFFFFF"></path>
                        <polygon id="Fill-52" fill="#E6E6E9" points="45.6650919 41.2234716 35.05251 37.9840909 32.2229741 48.0548256 41.2437064 50.8539681"></polygon>
                        <polygon id="Fill-54" fill="#E6AA09" points="29.6842341 87.9808025 21.3411627 85.9152233 32.0198517 48.8586059 43.2480092 51.8114425"></polygon>
                        <path d="M21.9223273,37.4689643 C21.946709,37.4724802 21.9743584,37.4795119 22.0040186,37.4898084 C22.0319193,37.4993515 22.0600714,37.507639 22.0884748,37.5149219 L25.3533626,38.3180492 L29.2692674,39.2819025 L42.2177183,42.4680428 L43.2794541,42.7292224 L42.8863303,43.7196959 L41.1554798,48.0808934 C40.7809565,48.1434258 40.2940763,48.1946572 39.7026311,48.1946572 C38.7831639,48.1946572 37.8129224,48.0705969 36.8188019,47.825741 C35.4868564,47.4982619 32.5987541,45.8764369 29.8051624,44.3076012 C27.1691721,42.827667 24.1812807,41.1500902 21.5030623,39.9810602 C20.1173262,39.3760778 18.938709,38.9579393 17.8993441,38.7020335 C17.85787,38.6919881 17.8166473,38.6826961 17.7751733,38.6734042 L17.7158528,38.6598429 C16.5229082,38.3818373 15.2842165,38.2404487 14.0347163,38.2404487 C13.1328442,38.2404487 12.2254422,38.3117708 11.32357,38.4531594 L11.34393,38.2607906 L11.7111639,35.4483381 L11.7727466,34.9762057 L13.3346846,35.3604411 L21.8290735,37.4508826 C21.8597392,37.4584166 21.8909075,37.4644439 21.9223273,37.4689643 L21.9223273,37.4689643 Z M20.9638996,28.9163361 C21.6370361,28.5665061 22.1028022,27.90979 22.2098807,27.1591497 C22.226973,27.0376007 22.2490925,26.922079 22.2752338,26.815598 C22.509248,25.8665617 23.1306047,25.0656945 24.0244334,24.5601613 C24.6475496,24.2080711 25.3634169,24.0219806 26.0951198,24.0219806 C26.4553157,24.0219806 26.8192819,24.0666825 27.1772156,24.1545795 C29.3843893,24.6977829 30.7771634,26.7749143 30.2814856,28.7849929 C30.2741963,28.8143756 30.2656501,28.8430049 30.2573553,28.8721364 L30.2465469,28.9090532 C29.9796048,29.8379988 30.3184353,30.854088 31.0903554,31.4369706 C31.4968011,31.7443589 32.0017791,31.9136234 32.5115329,31.9136234 C32.9509066,31.9136234 33.3807286,31.791321 33.7542464,31.5597753 C34.7576671,30.9369623 35.9375411,30.6082276 37.1666813,30.6082276 C37.7138874,30.6082276 38.2605909,30.6742759 38.7919615,30.8051168 C40.461732,31.2162236 41.8751175,32.2077016 42.7719625,33.5972275 C43.5431285,34.791622 43.8477743,36.1560344 43.6497043,37.4900596 L13.8952127,30.1682403 C14.1784931,29.6785285 14.5987635,29.2651616 15.125861,28.9673163 C15.682116,28.6528962 16.3215705,28.4863942 16.9751011,28.4863942 C17.298096,28.4863942 17.6241072,28.5268268 17.9445885,28.6054319 C18.2437044,28.6790142 18.5342741,28.7870019 18.8085056,28.9261303 C19.1380358,29.0936369 19.5075319,29.1820361 19.8767767,29.1820361 C20.2538135,29.1820361 20.6295936,29.090121 20.9638996,28.9163361 L20.9638996,28.9163361 Z M5.95783289,79.5505269 L10.6735585,43.4025133 C11.4696089,43.1887981 12.6638103,42.9524808 14.0503005,42.9524808 C14.9878655,42.9524808 15.904065,43.0609707 16.7725066,43.2744349 C19.5706227,43.9627939 23.7798622,46.3264695 27.4934238,48.4113861 C30.8472923,50.2943907 33.7379081,51.9174714 35.6912104,52.3981424 C37.0518107,52.7329043 38.3995918,52.9029222 39.6968499,52.9029222 C39.742597,52.9029222 39.7880928,52.9026711 39.83384,52.9021688 L27.9931233,84.9727666 L5.95783289,79.5505269 Z M77.5646718,41.3384409 C76.2475564,41.7199138 72.9346593,41.7580862 69.7308515,41.7952541 C65.1689569,41.8479923 59.9987762,41.9077622 56.6144935,42.8879392 C54.1471643,43.6024162 52.1908457,44.8332252 50.7950553,45.9580555 L50.7151235,45.7777411 L49.4435039,42.7219395 L80.6093701,33.6971789 L81.4479,39.3929038 C80.7516386,39.9680013 79.5104333,40.7748956 77.5646718,41.3384409 L77.5646718,41.3384409 Z M54.3711242,32.8819971 C54.7788267,32.2426093 54.85348,31.441491 54.570451,30.7383151 C54.5249552,30.625807 54.4864975,30.5148056 54.4555804,30.4080736 C54.1833598,29.4693337 54.3206012,28.465299 54.8416662,27.5810552 C55.3891237,26.6523608 56.2864714,25.9682711 57.3688185,25.6548555 C57.7815482,25.5353156 58.2033267,25.4747922 58.6218377,25.4747922 C59.2901983,25.4747922 59.9517723,25.6330068 60.5354254,25.9323589 C61.4491113,26.4012265 62.1026419,27.1767291 62.3751138,28.1159712 C62.3829059,28.1433448 62.3889385,28.1694628 62.3954738,28.1950785 L62.4065336,28.2392781 C62.6407991,29.1777668 63.4431336,29.8882256 64.402818,30.0070121 C64.4978313,30.0190666 64.5976204,30.0253449 64.6964041,30.0253449 C65.565097,30.0253449 66.360142,29.5486921 66.7711122,28.781477 C67.5832495,27.2653795 69.0355955,26.110413 70.7556376,25.6124138 C71.3825242,25.4305926 72.0242409,25.3384263 72.6629414,25.3384263 C73.6872248,25.3384263 74.7029621,25.5817754 75.6000585,26.0418534 C76.8653941,26.6910354 77.812008,27.720937 78.3081885,28.9748504 L48.8759377,37.4975936 C48.8776973,36.0098743 49.9638147,34.5957373 51.600406,34.1213447 C51.8957516,34.035959 52.2016541,33.9844765 52.5098189,33.9679016 C53.267663,33.9269667 53.963673,33.5211338 54.3711242,32.8819971 L54.3711242,32.8819971 Z M66.7150594,84.228907 L52.7066322,50.5636066 C53.6268534,49.6399348 55.4233084,48.1358918 57.9263303,47.4108672 C60.6957917,46.6089955 65.5248797,46.5532437 69.7856475,46.5040214 C73.6261449,46.4593195 76.9433151,46.420896 78.8767601,45.8611177 C80.281348,45.4545313 81.567295,44.9070587 82.7160006,44.2282428 L88.5118111,77.9174009 L66.7150594,84.228907 Z M93.513582,79.1939163 L85.0093901,29.7593938 C84.8960277,29.0996641 84.5051662,28.5172837 83.9370973,28.1621799 C83.6133483,27.9597657 83.2471199,27.8394724 82.8683235,27.8103408 C81.9058741,25.5797664 80.053115,23.0327627 77.7526875,21.8526829 C76.1920063,21.0520669 74.432501,20.6286545 72.6647009,20.6286545 C71.5826051,20.6286545 70.4990012,20.7838555 69.4438007,21.0889836 C67.8046959,21.5638785 66.2993134,22.3936261 65.0354859,23.5119269 C64.3713983,22.7999613 63.5745937,22.1977413 62.6883058,21.7431883 C61.4413192,21.1032983 60.0359772,20.7650204 58.6243512,20.7650204 C57.7616909,20.7650204 56.8975224,20.8885785 56.0569816,21.1319276 C53.8143664,21.7813607 51.9404933,23.2228714 50.7802252,25.1912617 C49.9311382,26.6320189 49.5329873,28.2189362 49.611411,29.8249398 C48.6338801,30.1961162 47.7410568,30.7370594 46.9666231,31.4254184 C46.8909644,31.2960843 46.8132948,31.1692615 46.7328603,31.04495 C45.181228,28.6413441 42.7614054,26.9323755 39.9193016,26.2327154 C39.0219539,26.0119684 38.0977109,25.8999625 37.1714571,25.8999625 C36.4000397,25.8999625 35.6351576,25.9768096 34.8863624,26.1294992 C34.1637084,22.9637008 31.6340425,20.401378 28.3045557,19.5819269 C27.5766233,19.4031193 26.8323525,19.3122087 26.0923549,19.3122087 C24.5512796,19.3122087 23.0335806,19.7097543 21.7031432,20.4619014 C20.2470269,21.2856217 19.1081242,22.4606789 18.3723996,23.8903862 C17.9073875,23.8147948 17.4391077,23.7768735 16.9723361,23.7768735 C15.5091818,23.7768735 14.0678956,24.1543283 12.8045708,24.8688053 C11.0189242,25.878365 9.72970956,27.4602597 9.13223182,29.3583324 C8.93365908,29.4211159 8.73910807,29.5095152 8.55310322,29.6215211 C8.04938199,29.9248912 7.42199266,30.5446906 7.29178927,31.7737416 L1.01211482,81.0289543 C0.856524282,82.2185773 1.61914415,83.3323577 2.78519346,83.6196553 L28.9115851,90.0484411 C29.0953277,90.0938964 29.2853543,90.1172519 29.4758836,90.1172519 C30.4579389,90.1172519 31.3459864,89.4982059 31.6863249,88.5772966 L46.6054218,48.1672836 L63.1714157,87.9806016 C63.5381468,88.8618317 64.392261,89.4311531 65.347421,89.4311531 C65.5698728,89.4311531 65.7910677,89.3997613 66.0047219,89.3377311 L91.8470791,81.8541815 C93.0005605,81.520424 93.7174333,80.3767586 93.513582,79.1939163 L93.513582,79.1939163 Z" id="Fill-56" fill="#320046"></path>
                        <path d="M12.5560532,52.5973421 C12.4881866,52.5973421 12.4195659,52.5923194 12.3506938,52.582274 C11.5848063,52.470017 11.0551952,51.7585536 11.1678035,50.9933476 L11.9450021,45.7092317 C12.0576105,44.9442768 12.7697074,44.4141323 13.5353436,44.527645 C14.3009798,44.639902 14.8305909,45.3513654 14.7182339,46.1165715 L13.9410352,51.4006873 C13.8387326,52.0965804 13.2399981,52.5973421 12.5560532,52.5973421" id="Fill-58" fill="#FFE79C"></path>
                        <path d="M8.39220903,79.4559498 C8.32434239,79.4559498 8.25597304,79.4509271 8.18684962,79.4408817 C7.42121345,79.3286247 6.891351,78.6171614 7.0042107,77.8522064 L9.77593427,59.0050828 C9.88829126,58.2401279 10.6006395,57.7097323 11.3660244,57.823245 C12.1319119,57.9357532 12.6612716,58.6472165 12.5489146,59.4121714 L9.77719106,78.259295 C9.6748884,78.9551881 9.07615388,79.4559498 8.39220903,79.4559498" id="Fill-60" fill="#FFE79C"></path>
                        <path d="M46.9331674,0.266287262 C45.633647,0.266287262 44.5764357,1.32255794 44.5764357,2.62092204 L44.5764357,14.9679377 C44.5764357,16.2663018 45.633647,17.3225725 46.9331674,17.3225725 C48.2326877,17.3225725 49.2896477,16.2663018 49.2896477,14.9679377 L49.2896477,2.62092204 C49.2896477,1.32255794 48.2326877,0.266287262 46.9331674,0.266287262" id="Fill-62" fill="#320046"></path>
                        <path d="M32.9376349,7.39418061 C32.4914746,6.89819045 31.8525228,6.61390648 31.1844135,6.61390648 C30.6020172,6.61390648 30.0427459,6.82787286 29.6096562,7.21713096 C28.6431851,8.08530208 28.563756,9.57678842 29.4324489,10.5421485 L37.093335,19.0573577 C37.5397467,19.553599 38.1786985,19.8381341 38.8465564,19.8381341 C39.4284499,19.8381341 39.9879726,19.6236654 40.4210623,19.2346585 C40.8895934,18.8142597 41.1658358,18.2369021 41.1992664,17.6088153 C41.232697,16.9807285 41.0192941,16.3772529 40.5987723,15.9093898 L32.9376349,7.39418061 Z" id="Fill-65" fill="#320046"></path>
                        <path d="M63.3116985,6.60717608 C62.8771007,6.21214189 62.314059,5.9944085 61.7263842,5.9944085 C61.0638048,5.9944085 60.4281207,6.27517659 59.9827145,6.76488839 L53.9099076,13.4350142 C53.4863695,13.900366 53.2694476,14.5025859 53.2993592,15.1306727 C53.3290195,15.7590106 53.6019941,16.3381262 54.0677603,16.7612874 C54.5023581,17.1563216 55.0653998,17.374055 55.6528233,17.374055 C56.3154027,17.374055 56.9510868,17.0932869 57.3967444,16.6038263 L63.4695513,9.93319816 C64.3437741,8.97286077 64.2731425,7.48087215 63.3116985,6.60717608" id="Fill-67" fill="#320046"></path>
                    </g>
                    <g id="Group-6" transform="translate(0.268797, 102.060811)" fill="#320046">
                        <path d="M1.32801876,12.7617991 L1.33422301,6.09441475 C1.33620837,4.04835494 1.89285334,2.54769515 3.00490244,1.59243537 C4.1164552,0.637673899 5.56576713,0.160542319 7.3538309,0.162037248 C9.19177681,0.163781332 10.6994086,0.610266863 11.8759819,1.49999891 C13.0535478,2.39022927 13.6409659,3.61532378 13.6399732,5.17553159 C13.6389805,5.89658579 13.4883414,6.38692257 13.1870632,6.64679111 C12.8860332,6.90641048 12.3847301,7.03547271 11.6831539,7.0349744 C10.4303925,7.03372862 9.77919484,6.63956562 9.72956087,5.85099044 C9.68116775,4.34086276 8.93839539,3.58542519 7.50149196,3.58442857 C5.99758267,3.5831828 5.24513168,4.42084148 5.24314632,6.09790292 L5.23768658,12.7652873 C5.23570123,14.4425979 5.9948528,15.282499 7.51563764,15.2839939 C7.98318964,15.2842431 8.37157545,15.2087491 8.68104326,15.0585087 C8.99001472,14.9080192 9.21187857,14.6773018 9.34589029,14.367104 C9.47965383,14.056657 9.56775413,13.8015224 9.60969484,13.5999561 C9.65138737,13.3988881 9.68861285,13.1220771 9.72335663,12.7695229 C9.79061066,11.9811969 10.4343632,11.5877814 11.6538699,11.5892763 C12.3723216,11.5897746 12.8818143,11.7200826 13.182348,11.9802003 C13.4826335,12.2410655 13.6327763,12.7319005 13.6322799,13.4529548 C13.6302946,15.0801852 13.0401467,16.362087 11.8615881,17.3006534 C10.6830294,18.2389707 9.17440492,18.7068835 7.33695535,18.7051395 C5.54913975,18.7036445 4.10032416,18.2242706 2.98976408,17.2672667 C1.87994851,16.3100137 1.32603341,14.8088556 1.32801876,12.7617991" id="Fill-1"></path>
                        <path d="M15.6079601,17.3541221 L15.6228503,1.35239957 C15.6228503,0.966707823 15.8151819,0.673701693 16.199597,0.472633711 C16.5845085,0.271316575 17.0436227,0.171156316 17.5786769,0.171654626 C18.1134829,0.172152936 18.5721008,0.273309814 18.9570122,0.47512526 C19.340931,0.676940707 19.5327663,0.970445146 19.53227,1.35638604 L19.5265621,7.52047758 L24.5137834,7.52546068 L24.5194913,1.36136914 C24.5194913,0.975428244 24.7115747,0.681923804 25.096238,0.480855822 C25.4811494,0.280036995 25.9400155,0.179378427 26.4750697,0.179876737 C27.0096275,0.180375046 27.4687418,0.281531924 27.8531569,0.483347371 C28.2370756,0.685411972 28.4289109,0.978667257 28.4284146,1.36460815 L28.4142689,17.3660815 C28.4132762,17.7525207 28.2211928,18.0497625 27.8362813,18.2588034 C27.4521144,18.4685918 26.992752,18.5724894 26.4581941,18.5719911 C25.9231399,18.5714928 25.4640257,18.4670969 25.080107,18.2563119 C24.6956919,18.0462743 24.5043529,17.7490325 24.5043529,17.3625933 L24.5110535,10.5447194 L19.523584,10.5397363 L19.5173798,17.3581086 C19.5168834,17.7442986 19.3245518,18.0415404 18.9401367,18.2508305 C18.5557216,18.4601206 18.0958629,18.5642673 17.5615532,18.563769 C17.0269953,18.5635198 16.5671366,18.4583765 16.1832178,18.2483389 C15.7992991,18.0380522 15.6074638,17.7405613 15.6079601,17.3541221" id="Fill-3"></path>
                        <path d="M35.310785,11.6870696 L38.9693049,11.6903086 L37.1462492,4.94543706 L35.310785,11.6870696 Z M29.8671793,16.9654156 C29.8676756,16.914588 29.8840548,16.8226498 29.9180541,16.6881062 L34.5933259,1.34514916 C34.7270895,0.926319818 35.0325865,0.603415104 35.5090727,0.37718248 C35.9855588,0.151448166 36.5325251,0.0385810086 37.1504681,0.0390793183 C37.7686591,0.0395776281 38.3156255,0.153441405 38.7916153,0.380172338 C39.267605,0.607152427 39.5721094,0.930804606 39.7053767,1.35013226 L44.3774223,16.7018097 C44.4109252,16.8361042 44.4278007,16.9280423 44.4273044,16.9786208 C44.4273044,17.4146418 44.1548139,17.7926097 43.6125628,18.1102822 C43.0688226,18.4289513 42.5049807,18.5874138 41.9200444,18.5864172 C41.2015927,18.5859188 40.7757332,18.3427437 40.642466,17.8561442 L39.793477,14.7100657 L34.505722,14.7050826 L33.6505287,17.8491679 C33.5162688,18.3360165 33.089913,18.578195 32.3719576,18.5776967 C31.7867731,18.5771984 31.2231793,18.4179885 30.6811764,18.0983228 C30.1376844,17.7794045 29.8671793,17.4014366 29.8671793,16.9654156 L29.8671793,16.9654156 Z" id="Fill-5"></path>
                        <path d="M49.7984445,8.30354643 L52.2793985,8.30603798 C53.0144776,8.30653629 53.5745969,8.12714478 53.959012,7.76686683 C54.3431789,7.40633973 54.5362551,6.80712227 54.5372478,5.96846697 C54.5382404,5.12956251 54.346157,4.53009589 53.9622382,4.16882132 C53.5783195,3.80754676 53.0189446,3.62690948 52.2838655,3.62666032 L49.8029115,3.62416877 L49.7984445,8.30354643 Z M45.8803389,17.3825008 L45.8957254,1.38102746 C45.8957254,1.06260753 46.0088909,0.785547315 46.2344772,0.550843426 C46.4600636,0.316139536 46.748437,0.199285901 47.099101,0.199285901 L52.2865954,0.204518153 C56.3970326,0.208255477 58.4498936,2.00540957 58.4471637,5.5944855 C58.4441857,8.21110997 57.4316527,9.9130869 55.4095648,10.6994197 L58.4620539,16.2623005 C58.545439,16.3799016 58.5871315,16.5308895 58.5866352,16.7152641 C58.5861389,17.2018635 58.323327,17.6628 57.7964624,18.0985719 C57.2693496,18.5340946 56.7136973,18.7513577 56.1295055,18.7508594 C55.5438247,18.7503611 55.1273957,18.5069368 54.8769923,18.0203373 L51.4495185,11.3243001 L49.7954664,11.3228052 L49.7902549,17.3862381 C49.7892622,17.7726773 49.5971787,18.0694208 49.2125155,18.27896 C48.8281004,18.4887484 48.3689861,18.592646 47.8344283,18.5921477 C47.2993741,18.5916494 46.8400117,18.4867552 46.4560929,18.2759702 C46.0716778,18.0666801 45.8803389,17.76894 45.8803389,17.3825008 L45.8803389,17.3825008 Z" id="Fill-7"></path>
                        <path d="M60.5162799,17.3964784 L60.5306737,1.39475589 C60.5311701,1.00906415 60.7235017,0.715559712 61.1079168,0.514740885 C61.4923319,0.313423748 61.9519425,0.213014335 62.4865003,0.213512644 C63.0213063,0.214010954 63.4804206,0.315167832 63.8648357,0.517232434 C64.2487544,0.718798725 64.4405897,1.01230316 64.4405897,1.39824406 L64.4271885,15.1862255 L70.1412993,15.1912086 C70.4917152,15.1917069 70.76768,15.3593882 70.9677049,15.6952489 C71.1684744,16.0313589 71.2682386,16.4334948 71.267246,16.9031518 C71.267246,17.3728087 71.166489,17.7751938 70.9657196,18.1108054 C70.7649502,18.4456696 70.4889853,18.6133508 70.1380731,18.6131016 L62.218725,18.6058762 C61.751173,18.6053778 61.3501306,18.5002345 61.0163421,18.2901969 C60.6823055,18.0801594 60.5152872,17.7829176 60.5162799,17.3964784" id="Fill-9"></path>
                        <path d="M72.8455069,17.4074163 L72.8603971,1.43110759 C72.8603971,1.045665 73.0271673,0.748423239 73.3621966,0.538385682 C73.6964814,0.32909559 74.0975238,0.224699698 74.5658203,0.225198008 L83.4870301,0.233170964 C83.8714452,0.233669274 84.1635411,0.401848812 84.3638142,0.737958735 C84.5638391,1.07357035 84.6640997,1.46698589 84.663107,1.91994945 C84.663107,2.40654891 84.5573867,2.8174053 84.3491722,3.15276776 C84.1397168,3.48813021 83.8513435,3.6560606 83.4835557,3.65556229 L76.7675832,3.64908426 L76.7636125,7.90141047 L80.5228894,7.90440032 C80.890429,7.90489863 81.178306,8.0563848 81.3870168,8.35860966 C81.5959759,8.66008705 81.6994627,9.02136162 81.6994627,9.44044011 C81.69847,9.82687932 81.5987057,10.1699656 81.3976881,10.471443 C81.1964224,10.7734187 80.9040783,10.9239082 80.5201596,10.9234099 L76.7606345,10.9199217 L76.7569119,15.1976617 L83.4731326,15.2038906 C83.8406722,15.2043889 84.1285492,15.3720702 84.3375082,15.7079309 C84.5457227,16.0435425 84.6497059,16.4546481 84.6497059,16.9407492 C84.6489614,17.3934636 84.5479562,17.7876266 84.347435,18.1234874 C84.1469137,18.4583516 83.8540733,18.6260328 83.4704027,18.6255345 L74.5484484,18.6170632 C74.0804001,18.6168141 73.679854,18.5119199 73.3460655,18.3011348 C73.0115326,18.0915956 72.8450106,17.7938555 72.8455069,17.4074163" id="Fill-11"></path>
                        <path d="M85.4774516,15.6080946 C85.4779479,15.1389359 85.6491851,14.6690299 85.992404,14.1998712 C86.3351266,13.7307126 86.7324465,13.4955104 87.1833711,13.4960087 C87.4340227,13.496507 87.7137101,13.5986605 88.0226816,13.8024692 C88.3311567,14.0060287 88.6155593,14.231763 88.8741523,14.479423 C89.1327453,14.7270829 89.4953215,14.9528172 89.963618,15.1566259 C90.43117,15.3604346 90.9235389,15.4625881 91.4417176,15.4630864 C92.0934116,15.4635847 92.6614724,15.3258021 93.1461481,15.0492402 C93.6308238,14.7731766 93.8737821,14.3578354 93.8747748,13.8044624 C93.8747748,13.2508403 93.6035252,12.7647392 93.0610259,12.3444149 C92.5185266,11.9250872 91.8593874,11.5426345 91.082864,11.1980533 C90.3058442,10.8534721 89.52535,10.4665346 88.7398924,10.0384866 C87.9549312,9.61018933 87.2920695,9.00150397 86.7495702,8.21193218 C86.2073191,7.42310786 85.936814,6.4842923 85.9375585,5.39374142 C85.9395438,3.61527395 86.5674136,2.28702932 87.8211676,1.40801093 C89.0749217,0.528245079 90.5877651,0.0892341941 92.358457,0.0907291233 C92.7927543,0.0912274331 93.2481459,0.11763785 93.7238875,0.169711218 C94.1998773,0.222282896 94.7346833,0.322443154 95.3275611,0.469942839 C95.9204389,0.617193368 96.4048664,0.855385426 96.7808437,1.18377155 C97.1560766,1.51290513 97.3434448,1.91030715 97.3431966,2.37697423 C97.3427003,2.8204699 97.204966,3.28016064 96.928753,3.75704307 C96.6520436,4.23467296 96.2720956,4.47261586 95.7874198,4.47211755 C95.5866504,4.47211755 95.1612873,4.31191097 94.5098414,3.99324189 C93.8583956,3.67382534 93.1404402,3.51312045 92.355479,3.51212383 C91.5196429,3.51187467 90.8927659,3.65812858 90.4753442,3.95113471 C90.0569298,4.24463915 89.8474745,4.60043231 89.8474745,5.01975996 C89.8469781,5.40570086 90.0432805,5.758255 90.4358852,6.07717324 C90.8277454,6.39609147 91.3158955,6.66891606 91.90108,6.8961453 C92.48552,7.1236237 93.124061,7.41762645 93.8169512,7.7784027 C94.5098414,8.14017558 95.1488788,8.53458774 95.733567,8.96313412 C96.3172625,9.39143135 96.8056607,9.99164543 97.1977691,10.7635272 C97.5893811,11.5356582 97.7846908,12.4161715 97.7836981,13.4053163 C97.7827054,15.1356969 97.204966,16.4816315 96.0512244,17.4441168 C94.8977309,18.4061038 93.3846393,18.8859761 91.5136868,18.8844811 C89.8931377,18.8832354 88.4817958,18.546378 87.2794129,17.8744073 C86.0772781,17.2021874 85.4769552,16.4467499 85.4774516,15.6080946" id="Fill-13"></path>
                        <path d="M98.5715629,1.9340267 C98.5720593,1.47782413 98.6723199,1.08316281 98.8730893,0.749295282 C99.0743551,0.414929443 99.3662028,0.248244834 99.7511142,0.248743143 L110.577028,0.258709338 C110.960946,0.258709338 111.253539,0.426390567 111.453564,0.76100556 C111.653837,1.0953714 111.753601,1.49028187 111.753601,1.94648444 C111.752608,2.43557546 111.647881,2.84693015 111.438922,3.18029937 C111.229466,3.51466521 110.941093,3.68085151 110.57405,3.68085151 L107.115306,3.67761249 L107.10265,17.4314597 C107.102153,17.8198922 106.909822,18.1201238 106.525407,18.3306597 C106.140992,18.5409464 105.681133,18.6460898 105.146823,18.6455914 C104.612265,18.6450931 104.152903,18.5392023 103.768488,18.3281681 C103.384817,18.1166356 103.192734,17.8161549 103.19323,17.4279716 L103.206135,3.67362602 L99.7476399,3.67088531 C99.3798521,3.670387 99.0919751,3.50320408 98.8835124,3.16883825 C98.6748016,2.83497072 98.5710666,2.42311771 98.5715629,1.9340267" id="Fill-15"></path>
                        <path d="M116.730374,12.8698327 C116.728885,14.5471433 117.471161,15.3865461 118.958443,15.3877918 C120.462104,15.3892868 121.214555,14.5511298 121.216541,12.87357 L121.222497,6.20643479 C121.223986,4.52912419 120.472776,3.68997058 118.968866,3.68847565 C117.482081,3.68722987 116.737819,4.52538686 116.73633,6.20244831 L116.730374,12.8698327 Z M112.820706,12.8658462 L112.826911,6.19871098 C112.828896,4.15265117 113.390008,2.65174222 114.510495,1.69648244 C115.629741,0.741970128 117.117519,0.264589393 118.972092,0.266582632 C120.843045,0.268575871 122.338517,0.748448155 123.457018,1.70495371 C124.575023,2.66245588 125.133654,4.1641123 125.131916,6.21017211 L125.125464,12.8773073 C125.123479,14.9243638 124.562367,16.4247744 123.442128,17.3802833 C122.322137,18.3350448 120.825921,18.8114289 118.955465,18.8094357 C117.100644,18.8074424 115.61361,18.3285668 114.495605,17.3713138 C113.377351,16.4143099 112.818721,14.9129026 112.820706,12.8658462 L112.820706,12.8658462 Z" id="Fill-17"></path>
                        <path d="M127.627562,17.4589914 L127.641956,1.48268265 C127.642452,1.09724006 127.834784,0.799499988 128.219199,0.589960741 C128.603614,0.380670648 129.063225,0.276274757 129.597782,0.276773066 C130.349985,0.277271376 130.905141,0.38689952 131.263995,0.605159188 C131.623097,0.823917166 132.027862,1.36931718 132.478042,2.24185754 L136.530904,10.0202235 L136.538597,1.46574012 C136.538597,1.07979922 136.731177,0.78629478 137.11584,0.585475953 C137.500255,0.384657126 137.959617,0.284247713 138.494672,0.284746022 C139.028981,0.285244332 139.487847,0.386650365 139.872759,0.588465812 C140.256677,0.789782948 140.448513,1.08353654 140.448016,1.46947744 L140.433374,17.4712 C140.432878,17.8576392 140.240298,18.1543826 139.855883,18.3639219 C139.471716,18.5734611 139.011858,18.6776078 138.4773,18.6771095 C137.408184,18.6761129 136.681543,18.3230605 136.297872,17.6186996 L131.544675,8.9082453 L131.536485,17.4624795 C131.536485,17.8486696 131.343657,18.1461605 130.959739,18.3552014 C130.574827,18.5649898 130.114968,18.6691366 129.580659,18.6686383 C129.046101,18.6683891 128.586738,18.5634949 128.202323,18.3527099 C127.818653,18.1426723 127.626569,17.8454306 127.627562,17.4589914" id="Fill-19"></path>
                        <g id="Group-7" transform="translate(0.000000, 24.000000)">
                            <path d="M8.06032912,28.5584533 L12.1264559,28.5584533 C14.8667063,28.5584533 16.2373615,26.9963882 16.2373615,23.8719861 L16.2373615,11.7345198 C16.2373615,8.61093308 14.8667063,7.04832432 12.1264559,7.04832432 L8.06032912,7.04832432 L8.06032912,28.5584533 Z M0.933876238,32.7290341 L0.933876238,2.87774356 C0.933876238,2.28466437 1.22268623,1.76904968 1.80163104,1.33144313 C2.37978096,0.894108375 3.1267125,0.675033291 4.04004099,0.675033291 L12.1264559,0.675033291 C15.5365336,0.675033291 18.262211,1.56573931 20.3032233,3.34633593 C22.3434407,5.12693255 23.3640793,7.92353743 23.3640793,11.7345198 L23.3640793,23.8719861 C23.3640793,27.6837838 22.3434407,30.4793015 20.3032233,32.2604417 C18.262211,34.0413102 15.5365336,34.9314726 12.1264559,34.9314726 L4.04004099,34.9314726 C3.1267125,34.9314726 2.37978096,34.7134847 1.80163104,34.2756063 C1.22268623,33.8382716 0.933876238,33.3226569 0.933876238,32.7290341 L0.933876238,32.7290341 Z" id="Fill-21"></path>
                            <path d="M35.0125813,15.7650392 L39.5352399,15.7650392 C40.8751593,15.7650392 41.895533,15.4293597 42.5960959,14.7569133 C43.2966589,14.085826 43.6469404,12.968978 43.6469404,11.406641 C43.6469404,9.84457586 43.2966589,8.72827143 42.5960959,8.05609689 C41.895533,7.38446595 40.8751593,7.04851458 39.5352399,7.04851458 L35.0125813,7.04851458 L35.0125813,15.7650392 Z M27.8863934,32.6819302 L27.8863934,2.87766202 C27.8863934,2.28458283 28.0920049,1.76923995 28.502963,1.33136159 C28.9141861,0.894026833 29.4393433,0.674951749 30.0792297,0.674951749 L39.5352399,0.674951749 C47.0273421,0.674951749 50.7728633,4.01842893 50.7728633,10.7037525 C50.7728633,15.5774936 48.9305735,18.748918 45.2459939,20.2166667 L50.8192319,30.5732646 C50.9710559,30.7920679 51.0478952,31.0731146 51.0478952,31.4169483 C51.0478952,32.3231472 50.5680467,33.1823238 49.6086146,33.9942063 C48.6489175,34.807176 47.6367577,35.2127095 46.5708104,35.2127095 C45.5043331,35.2127095 44.7433585,34.7601537 44.2862968,33.853683 L38.0281286,21.3878758 L35.0125813,21.3878758 L35.0125813,32.6819302 C35.0125813,33.4011271 34.6620349,33.9556099 33.9622668,34.3453788 C33.2614389,34.7365066 32.4241549,34.9316628 31.4498848,34.9316628 C30.47429,34.9316628 29.6370059,34.7365066 28.9372379,34.3453788 C28.2364099,33.9556099 27.8863934,33.4011271 27.8863934,32.6819302 L27.8863934,32.6819302 Z" id="Fill-23"></path>
                            <path d="M54.5655215,32.6819846 L54.5655215,2.87771638 C54.5655215,2.15906313 54.9147431,1.61246264 55.615836,1.23737131 C56.315869,0.862551778 57.153418,0.67500611 58.128218,0.67500611 C59.102753,0.67500611 59.9397721,0.862551778 60.640865,1.23737131 C61.341163,1.61246264 61.6917094,2.15906313 61.6917094,2.87771638 L61.6917094,32.6819846 C61.6917094,33.4011815 61.341163,33.9556643 60.640865,34.3454331 C59.9397721,34.736561 59.102753,34.9314454 58.128218,34.9314454 C57.153418,34.9314454 56.315869,34.736561 55.615836,34.3454331 C54.9147431,33.9556643 54.5655215,33.4011815 54.5655215,32.6819846" id="Fill-25"></path>
                            <path d="M66.6249816,32.6819846 L66.6249816,2.9244669 C66.6249816,2.20635726 66.9742032,1.65187441 67.6752961,1.26074656 C68.375859,0.870434132 69.213408,0.67500611 70.188208,0.67500611 C71.5585982,0.67500611 72.571023,0.878860096 73.2257473,1.28439363 C73.8807365,1.69074257 74.6194542,2.70620723 75.4411054,4.33024399 L82.8423252,18.8106722 L82.8423252,2.87771638 C82.8423252,2.15906313 83.1918118,1.61246264 83.8926397,1.23737131 C84.5929377,0.862551778 85.4304867,0.67500611 86.4050217,0.67500611 C87.3798217,0.67500611 88.2168408,0.862551778 88.9179337,1.23737131 C89.6179667,1.61246264 89.9687781,2.15906313 89.9687781,2.87771638 L89.9687781,32.6819846 C89.9687781,33.4011815 89.6179667,33.9556643 88.9179337,34.3454331 C88.2168408,34.736561 87.3798217,34.9314454 86.4050217,34.9314454 C84.4562167,34.9314454 83.1314002,34.2755792 82.4308372,32.9633031 L73.7514345,16.7490288 L73.7514345,32.6819846 C73.7514345,33.4011815 73.400888,33.9556643 72.700855,34.3454331 C71.9992322,34.736561 71.1622131,34.9314454 70.188208,34.9314454 C69.213408,34.9314454 68.375859,34.736561 67.6752961,34.3454331 C66.9742032,33.9556643 66.6249816,33.4011815 66.6249816,32.6819846" id="Fill-27"></path>
                            <path d="M94.9017853,32.6819846 L94.9017853,2.87771638 C94.9017853,2.15906313 95.2512719,1.61246264 95.9520998,1.23737131 C96.6529278,0.862551778 97.4902118,0.67500611 98.4650118,0.67500611 C99.4390168,0.67500611 100.276301,0.862551778 100.977659,1.23737131 C101.677957,1.61246264 102.028238,2.15906313 102.028238,2.87771638 L102.028238,14.1247485 L110.571185,1.70596367 C111.027717,1.01911164 111.651705,0.67500611 112.443945,0.67500611 C113.387745,0.67500611 114.324125,1.0732009 115.253616,1.87013408 C116.182313,2.66679546 116.646528,3.51836151 116.646528,4.42428863 C116.646528,4.9241386 116.493909,5.39300277 116.189997,5.83033752 L108.698159,15.4840469 L118.154434,30.3390228 C118.397671,30.7453717 118.519819,31.1514489 118.519819,31.5572542 C118.519819,32.4639967 118.062492,33.2995263 117.149164,34.0643864 C116.235835,34.8306056 115.26077,35.2127639 114.225294,35.2127639 C113.128876,35.2127639 112.306959,34.760208 111.75875,33.8537373 L103.946837,21.6692487 L102.028238,24.2000279 L102.028238,32.6819846 C102.028238,33.4011815 101.677957,33.9556643 100.977659,34.3454331 C100.276301,34.736561 99.4390168,34.9314454 98.4650118,34.9314454 C97.4902118,34.9314454 96.6529278,34.736561 95.9520998,34.3454331 C95.2512719,33.9556643 94.9017853,33.4011815 94.9017853,32.6819846" id="Fill-29"></path>
                            <path d="M119.159122,29.308038 C119.159122,28.4339122 119.471249,27.558699 120.095503,26.6837577 C120.719756,25.8090882 121.443106,25.3714817 122.266082,25.3714817 C122.722349,25.3714817 123.232138,25.5612018 123.795715,25.9395548 C124.359292,26.318995 124.876765,26.7383906 125.34893,27.1993724 C125.821095,27.660626 126.483503,28.0800216 127.33589,28.4586464 C128.188542,28.8380867 129.087297,29.0267195 130.031891,29.0267195 C131.219722,29.0267195 132.254403,28.7693199 133.137791,28.2537052 C134.020914,27.7380905 134.462608,26.9650762 134.462608,25.9338469 C134.462608,24.9031611 133.967656,23.9969622 132.977753,23.2160655 C131.988115,22.4357125 130.785182,21.7246698 129.368953,21.0837528 C127.952724,20.4436513 126.528812,19.7247262 125.09801,18.9280649 C123.666148,18.1311317 122.455266,16.9990625 121.466158,15.5307702 C120.475725,14.0622061 119.981568,12.3131389 119.981568,10.281666 C119.981568,6.96999003 121.123295,4.49411541 123.407279,2.85458575 C125.691263,1.21424067 128.447941,0.393660428 131.676518,0.393660428 C132.467699,0.393660428 133.297564,0.442041775 134.166114,0.538804467 C135.033868,0.635567159 136.007874,0.820938384 137.089984,1.09491814 C138.169974,1.36862609 139.054157,1.81058154 139.739352,2.4224153 C140.424282,3.03424906 140.766879,3.77491855 140.766879,4.64306473 C140.766879,5.46908108 140.515429,6.32581143 140.013324,7.21461481 C139.510688,8.10314639 138.817279,8.54781988 137.934687,8.54781988 C137.569302,8.54781988 136.792695,8.25155209 135.605129,7.65765748 C134.417034,7.06485008 133.107055,6.76722326 131.676518,6.76722326 C130.152715,6.76722326 129.010988,7.04120302 128.250013,7.5872599 C127.488774,8.134404 127.108021,8.79869619 127.108021,9.57904925 C127.108021,10.2982461 127.465722,10.9541123 128.181388,11.5471915 C128.896524,12.141358 129.78733,12.6485467 130.853807,13.0706603 C131.919225,13.4922304 133.084533,14.0391027 134.348938,14.71019 C135.612283,15.3826363 136.776797,16.1162389 137.843009,16.9129003 C138.908692,17.7095616 139.800028,18.8269533 140.515429,20.2634444 C141.230565,21.7010227 141.58906,23.341096 141.58906,25.1842078 C141.58906,28.406188 140.538746,30.913592 138.437322,32.7083225 C136.335633,34.503053 133.579485,35.4002824 130.168877,35.4002824 C127.214007,35.4002824 124.640948,34.775402 122.448377,33.5256411 C120.25554,32.2764239 119.159122,30.870375 119.159122,29.308038" id="Fill-31"></path>
                        </g>
                    </g>
                </g>
            </g>
        </g>
    </g>
</svg>