<?xml version="1.0" encoding="UTF-8" standalone="no"?>
<svg width="135px" height="151px" viewBox="0 0 135 151" version="1.1" xmlns="http://www.w3.org/2000/svg" xmlns:xlink="http://www.w3.org/1999/xlink">
    <!-- Generator: Sketch 42 (36781) - http://www.bohemiancoding.com/sketch -->
    <title>Logo</title>
    <desc>Created with Sketch.</desc>
    <defs>
        <polygon id="path-1" points="6.45169303 30.1119987 6.45169303 0.0571918367 0.127211482 0.0571918367 0.127211482 30.1119987 6.45169303 30.1119987"></polygon>
        <polygon id="path-3" points="4.54872759 0.140496075 0.110881078 0.140496075 0.110881078 16.204543 4.54872759 16.204543 4.54872759 0.140496075"></polygon>
    </defs>
    <g id="Page-1" stroke="none" stroke-width="1" fill="none" fill-rule="evenodd">
        <g id="Desktop-HD" transform="translate(-95.000000, -70.000000)">
            <g id="Logo" transform="translate(95.000000, 70.000000)">
                <path d="M0.432400703,109.052226 L0.438317516,102.722807 C0.440210896,100.78046 0.97106737,99.3558679 2.03159695,98.4490296 C3.09165319,97.5426644 4.47382074,97.0897183 6.17904628,97.0911374 C7.931843,97.0927931 9.36962859,97.5166466 10.491693,98.3612787 C11.6147042,99.2063839 12.174908,100.369379 12.1739613,101.850501 C12.1730146,102.535006 12.0293544,103.000487 11.742034,103.247183 C11.4549502,103.493643 10.9768717,103.616163 10.3077985,103.61569 C9.11307557,103.614507 8.49204687,103.240324 8.44471236,102.491721 C8.39856122,101.058141 7.69020035,100.340996 6.31986643,100.34005 C4.88563093,100.338867 4.16803984,101.134066 4.16614646,102.726118 L4.16093966,109.055537 C4.15904628,110.647826 4.88302753,111.445153 6.33335677,111.446572 C6.7792478,111.446809 7.1496403,111.375142 7.44477094,111.232517 C7.73942824,111.089655 7.95101347,110.870633 8.07881664,110.576159 C8.20638313,110.281448 8.29040187,110.039246 8.33039953,109.847897 C8.37016052,109.657021 8.40566139,109.394242 8.43879555,109.059558 C8.5029338,108.311192 9.11686233,107.937718 10.2798711,107.939137 C10.9650381,107.93961 11.4509268,108.063313 11.7375372,108.310246 C12.023911,108.557888 12.1670978,109.023843 12.1666245,109.708347 C12.1647311,111.253095 11.6019238,112.470018 10.477966,113.361009 C9.3540082,114.251763 7.91527592,114.695958 6.16295255,114.694302 C4.45796368,114.692883 3.07626948,114.237808 2.01715993,113.329314 C0.958760398,112.420584 0.430507323,110.995518 0.432400703,109.052226" id="Fill-1" fill="#320046"></path>
                <path d="M14.0507745,113.411767 L14.0649748,98.2211611 C14.0649748,97.8550198 14.248396,97.5768659 14.6150018,97.38599 C14.9820808,97.1948774 15.419925,97.0997942 15.930191,97.1002673 C16.4402203,97.1007403 16.8775911,97.1967696 17.2446702,97.3883552 C17.6108026,97.5799408 17.7937504,97.8585677 17.7932771,98.2249455 L17.7878336,104.076583 L22.5440047,104.081314 L22.5494482,98.229676 C22.5494482,97.8632982 22.7326327,97.5846713 23.0994751,97.3937953 C23.4665542,97.2031558 23.9041617,97.1075996 24.4144277,97.1080726 C24.9242203,97.1085457 25.3620644,97.204575 25.7286702,97.3961605 C26.0948026,97.5879826 26.2777504,97.866373 26.2772771,98.2327508 L26.2637868,113.42312 C26.2628401,113.789971 26.0796555,114.072146 25.7125764,114.270591 C25.3462074,114.469745 24.9081265,114.568376 24.3983339,114.567903 C23.888068,114.56743 23.4502238,114.468326 23.0840914,114.268225 C22.7174856,114.068835 22.5350111,113.78666 22.5350111,113.419809 L22.5414013,106.947528 L17.7849936,106.942798 L17.7790767,113.415551 C17.7786034,113.782166 17.5951822,114.064341 17.2285764,114.263022 C16.8619707,114.461703 16.4234165,114.560571 15.9138606,114.560098 C15.404068,114.559861 14.9655138,114.460048 14.5993814,114.260657 C14.233249,114.061029 14.0503011,113.778618 14.0507745,113.411767" id="Fill-3" fill="#320046"></path>
                <path d="M32.8407979,108.031974 L36.3298243,108.035048 L34.5912279,101.63207 L32.8407979,108.031974 Z M27.6493861,113.042764 C27.6498594,112.994513 27.6654798,112.907235 27.6979039,112.779511 L32.1565776,98.2142782 C32.2841441,97.816679 32.575488,97.5101421 33.0298992,97.2953771 C33.4843105,97.0810851 34.0059367,96.9739391 34.5952513,96.9744121 C35.1848026,96.9748852 35.7064288,97.0829773 36.1603667,97.2982154 C36.6143046,97.51369 36.9047018,97.8209365 37.031795,98.2190087 L41.4873919,112.79252 C41.5193427,112.920007 41.5354364,113.007285 41.5349631,113.0553 C41.5349631,113.469219 41.2750967,113.828028 40.7579672,114.129598 C40.2394177,114.432114 39.7016977,114.582544 39.1438606,114.581598 C38.4586936,114.581125 38.0525636,114.350276 37.9254704,113.888342 L37.1158137,110.901736 L32.0730322,110.897006 L31.2574587,113.881719 C31.1294189,114.34389 30.7228155,114.573793 30.0381219,114.57332 C29.480048,114.572846 28.9425647,114.421707 28.4256719,114.118245 C27.9073591,113.815492 27.6493861,113.456683 27.6493861,113.042764 L27.6493861,113.042764 Z" id="Fill-5" fill="#320046"></path>
                <path d="M46.6572665,104.819959 L49.0232818,104.822324 C49.7243058,104.822797 50.2584757,104.652499 50.6250814,104.310483 C50.9914505,103.968231 51.1755817,103.399388 51.1765284,102.603243 C51.1774751,101.806862 50.9942906,101.237782 50.6281582,100.89482 C50.2620258,100.551859 49.7285659,100.380378 49.0275419,100.380141 L46.6615267,100.377776 L46.6572665,104.819959 Z M42.9206807,113.438707 L42.9353544,98.2483378 C42.9353544,97.9460584 43.0432771,97.6830422 43.2584124,97.4602353 C43.4735477,97.2374284 43.7485612,97.126498 44.0829795,97.126498 L49.0301453,97.131465 C52.9501523,97.1350129 54.9079074,98.8410704 54.905304,102.248219 C54.902464,104.732208 53.9368401,106.347913 52.0084323,107.094387 L54.9195044,112.375289 C54.9990264,112.486929 55.0387873,112.630264 55.038314,112.805292 C55.0378407,113.267226 54.7872045,113.704798 54.2847487,114.118481 C53.7820562,114.531928 53.2521465,114.738178 52.6950193,114.737705 C52.1364722,114.737232 51.7393357,114.506146 51.5005331,114.044212 L48.2318489,107.687593 L46.6544265,107.686174 L46.6494564,113.442255 C46.6485097,113.809106 46.4653251,114.090808 46.0984827,114.289726 C45.731877,114.48888 45.2940328,114.587511 44.7842402,114.587038 C44.2739742,114.586565 43.8358934,114.486988 43.469761,114.286887 C43.1031552,114.088206 42.9206807,113.805558 42.9206807,113.438707 L42.9206807,113.438707 Z" id="Fill-7" fill="#320046"></path>
                <path d="M56.8785612,113.451976 L56.8922882,98.2613704 C56.8927616,97.8952291 57.0761828,97.6166022 57.4427885,97.4259627 C57.8093943,97.2348502 58.2477118,97.1395305 58.7575044,97.1400036 C59.2675337,97.1404766 59.7053779,97.2365059 60.0719836,97.428328 C60.438116,97.619677 60.6210639,97.8983039 60.6210639,98.2646817 L60.6082835,111.35376 L66.0576684,111.35849 C66.39185,111.358963 66.6550299,111.518145 66.8457879,111.836981 C67.037256,112.156054 67.1323984,112.537806 67.1314517,112.983656 C67.1314517,113.429506 67.0353626,113.811495 66.8438946,114.130095 C66.6524265,114.447985 66.3892466,114.607166 66.0545917,114.60693 L58.5021347,114.600071 C58.0562437,114.599597 57.6737809,114.499784 57.3554564,114.300393 C57.0368951,114.101002 56.8776145,113.818827 56.8785612,113.451976" id="Fill-9" fill="#320046"></path>
                <path d="M68.6365943,113.46236 L68.6507946,98.2958794 C68.6507946,97.9299747 68.8098385,97.6477999 69.1293465,97.448409 C69.4481443,97.2497277 69.8306071,97.1506235 70.2772082,97.1510966 L78.7851121,97.1586654 C79.1517179,97.1591385 79.4302814,97.3187931 79.6212762,97.6378658 C79.8120342,97.9564655 79.9076499,98.3299391 79.9067032,98.7599422 C79.9067032,99.2218763 79.8058807,99.6119066 79.6073125,99.9302698 C79.4075609,100.248633 79.1325474,100.408051 78.7817987,100.407578 L72.3769668,100.401428 L72.3731801,104.438207 L75.9582955,104.441045 C76.3088075,104.441518 76.5833476,104.585326 76.7823892,104.872231 C76.9816675,105.158427 77.0803599,105.501389 77.0803599,105.899224 C77.0794132,106.266075 76.9842709,106.591771 76.7925661,106.877966 C76.6006247,107.164635 76.3218245,107.307496 75.9556921,107.307023 L72.37034,107.303712 L72.3667899,111.364616 L78.7718585,111.370529 C79.1223705,111.371002 79.3969106,111.530184 79.5961889,111.84902 C79.7947571,112.16762 79.8939229,112.557887 79.8939229,113.019348 C79.8932129,113.449114 79.7968872,113.823298 79.6056558,114.142134 C79.4144244,114.460024 79.1351508,114.619205 78.7692551,114.618732 L70.2606411,114.610691 C69.8142767,114.610454 69.4322873,114.510877 69.1139627,114.310776 C68.7949282,114.111859 68.6361209,113.829211 68.6365943,113.46236" id="Fill-11" fill="#320046"></path>
                <path d="M80.6833204,111.754244 C80.6837938,111.308867 80.8470978,110.86278 81.1744159,110.417403 C81.5012607,109.972026 81.8801734,109.748746 82.3102074,109.749219 C82.5492466,109.749692 82.8159766,109.846667 83.1106339,110.040145 C83.4048178,110.233386 83.6760445,110.447678 83.9226573,110.682785 C84.1692701,110.917891 84.5150486,111.132183 84.9616497,111.32566 C85.4075407,111.519138 85.877099,111.616114 86.3712712,111.616587 C86.9927733,111.61706 87.5345167,111.486261 87.9967381,111.223718 C88.4589596,110.961648 88.690662,110.56736 88.6916087,110.042037 C88.6916087,109.516478 88.4329256,109.055017 87.9155595,108.655999 C87.3981933,108.257926 86.7695911,107.89486 86.0290428,107.567745 C85.2880211,107.240631 84.543686,106.873307 83.7946175,106.466956 C83.0460223,106.060369 82.4138699,105.482538 81.8965038,104.732989 C81.3793743,103.984149 81.1214013,103.092922 81.1221113,102.05765 C81.1240047,100.369332 81.7227862,99.1084151 82.9184558,98.2739535 C84.1141254,97.4387824 85.5568811,97.0220247 87.2455395,97.0234439 C87.6597165,97.0239169 88.0940105,97.0489886 88.5477118,97.0984224 C89.0016497,97.1483293 89.511679,97.2434125 90.0770896,97.3834355 C90.6425003,97.523222 91.1044851,97.7493402 91.4630439,98.0610807 C91.8208928,98.3735307 91.9995806,98.7507887 91.9993439,99.1938007 C91.9988705,99.6148159 91.8675173,100.051205 91.6041008,100.503915 C91.3402109,100.957334 90.9778653,101.183216 90.5156438,101.182743 C90.3241757,101.182743 89.918519,101.030657 89.2972537,100.728141 C88.6759883,100.424915 87.9912947,100.272356 87.2426995,100.27141 C86.4455864,100.271174 85.8477516,100.410014 85.4496684,100.688168 C85.0506385,100.966795 84.8508869,101.304553 84.8508869,101.702625 C84.8504136,102.069003 85.0376216,102.403687 85.4120375,102.706439 C85.7857434,103.009192 86.2512783,103.268187 86.8093521,103.483898 C87.3667159,103.699846 87.9756743,103.978946 88.636464,104.321434 C89.2972537,104.664869 89.9066854,105.039289 90.4642859,105.446113 C91.0209397,105.8527 91.4867112,106.422489 91.8606538,107.155245 C92.234123,107.888237 92.4203843,108.724118 92.4194376,109.663124 C92.4184909,111.305792 91.8675173,112.583502 90.7672267,113.4972 C89.6671728,114.410424 88.2241804,114.865972 86.4399063,114.864553 C84.8944347,114.863371 83.548478,114.543588 82.4017996,113.905679 C81.2553579,113.267534 80.6828471,112.550389 80.6833204,111.754244" id="Fill-13" fill="#320046"></path>
                <path d="M93.1708019,98.7733059 C93.1712752,98.3402279 93.2668909,97.9655717 93.458359,97.6486277 C93.6503004,97.3312107 93.9286273,97.1729752 94.2957064,97.1734482 L104.620072,97.1829093 C104.986204,97.1829093 105.265241,97.3420908 105.455999,97.6597444 C105.646994,97.9771615 105.742136,98.3520542 105.742136,98.7851322 C105.74119,99.2494315 105.641314,99.6399349 105.442036,99.9564059 C105.242284,100.273823 104.967271,100.431585 104.617232,100.431585 L101.318727,100.428511 L101.306657,113.485185 C101.306183,113.853928 101.122762,114.138941 100.756156,114.338805 C100.389551,114.538432 99.9509964,114.638246 99.4414404,114.637773 C98.9316478,114.6373 98.493567,114.536776 98.1269612,114.336439 C97.7610655,114.135629 97.577881,113.85038 97.5783543,113.481873 L97.5906613,100.424726 L94.292393,100.422124 C93.9416443,100.421651 93.6671042,100.262943 93.4682992,99.9455257 C93.2692576,99.6285817 93.1703285,99.2376052 93.1708019,98.7733059" id="Fill-15" fill="#320046"></path>
                <path d="M110.488344,109.154783 C110.486923,110.747072 111.194811,111.543926 112.613189,111.545109 C114.047188,111.546528 114.764779,110.750857 114.766673,109.158331 L114.772353,102.829149 C114.773773,101.23686 114.057365,100.440242 112.62313,100.438823 C111.205225,100.43764 110.495444,101.233312 110.494024,102.825364 L110.488344,109.154783 Z M106.759805,109.150999 L106.765721,102.821816 C106.767615,100.87947 107.302731,99.4546409 108.371308,98.5478026 C109.438701,97.6416739 110.857553,97.1884913 112.626206,97.1903835 C114.410481,97.1922757 115.836669,97.6478235 116.903352,98.5558445 C117.969562,99.4648115 118.502312,100.89035 118.500655,102.832696 L118.494502,109.161879 C118.492608,111.105172 117.957492,112.529527 116.889152,113.436602 C115.821049,114.342967 114.39415,114.795204 112.610349,114.793312 C110.841459,114.79142 109.423317,114.336818 108.357107,113.428087 C107.290661,112.519593 106.757911,111.094291 106.759805,109.150999 L106.759805,109.150999 Z" id="Fill-17" fill="#320046"></path>
                <path d="M120.880681,113.511321 L120.894408,98.3448402 C120.894882,97.9789354 121.078303,97.6962876 121.444909,97.4973698 C121.811514,97.2986884 122.249832,97.1995843 122.759625,97.2000574 C123.476979,97.2005304 124.006415,97.3046016 124.348644,97.5117978 C124.691109,97.7194671 125.077122,98.2372211 125.506446,99.065533 L129.371545,106.449619 L129.378882,98.3287565 C129.378882,97.9623786 129.56254,97.6837518 129.929382,97.4931123 C130.295988,97.3024728 130.734069,97.2071531 131.244335,97.2076262 C131.753891,97.2080992 132.191498,97.304365 132.558577,97.4959506 C132.92471,97.6870631 133.107657,97.9659265 133.107184,98.3323043 L133.09322,113.52291 C133.092747,113.889761 132.909089,114.171463 132.542483,114.370381 C132.176114,114.569299 131.73756,114.668166 131.227768,114.667693 C130.208182,114.666747 129.515205,114.331591 129.149309,113.662933 L124.616321,105.394006 L124.60851,113.514632 C124.60851,113.881246 124.424616,114.163658 124.058483,114.362102 C123.691404,114.561257 123.25285,114.660124 122.743294,114.659651 C122.233502,114.659415 121.795421,114.559838 121.428815,114.359737 C121.062919,114.160346 120.879735,113.878171 120.880681,113.511321" id="Fill-19" fill="#320046"></path>
                <path d="M6.36561523,144.572377 L9.9975918,144.572377 C12.4452591,144.572377 13.669566,143.213066 13.669566,140.494207 L13.669566,129.932166 C13.669566,127.214016 12.4452591,125.854232 9.9975918,125.854232 L6.36561523,125.854232 L6.36561523,144.572377 Z M7.10017575e-05,148.201623 L7.10017575e-05,122.224986 C7.10017575e-05,121.708888 0.258044054,121.260199 0.775173521,120.879394 C1.29159297,120.498824 1.95877282,120.308185 2.77458301,120.308185 L9.9975918,120.308185 C13.0435672,120.308185 15.4782175,121.083278 17.3013059,122.632756 C19.1236844,124.182234 20.0353469,126.615844 20.0353469,129.932166 L20.0353469,140.494207 C20.0353469,143.811239 19.1236844,146.243902 17.3013059,147.793853 C15.4782175,149.343567 13.0435672,150.118188 9.9975918,150.118188 L2.77458301,150.118188 C1.95877282,150.118188 1.29159297,149.928495 0.775173521,149.547452 C0.258044054,149.166883 7.10017575e-05,148.718194 7.10017575e-05,148.201623 L7.10017575e-05,148.201623 Z" id="Fill-21" fill="#320046"></path>
                <path d="M30.4401101,133.43953 L34.4798735,133.43953 C35.6767264,133.43953 36.5881523,133.147421 37.2139145,132.562257 C37.8396766,131.978276 38.1525577,131.006393 38.1525577,129.646845 C38.1525577,128.287534 37.8396766,127.316124 37.2139145,126.731197 C36.5881523,126.146743 35.6767264,125.854397 34.4798735,125.854397 L30.4401101,125.854397 L30.4401101,133.43953 Z M24.0748026,148.160633 L24.0748026,122.224916 C24.0748026,121.708817 24.2584605,121.260365 24.6255395,120.879323 C24.9928553,120.498753 25.4619402,120.308114 26.0335044,120.308114 L34.4798735,120.308114 C41.1720258,120.308114 44.5176286,123.217613 44.5176286,129.035191 C44.5176286,133.276327 42.8720445,136.036105 39.5808764,137.313343 L44.5590463,146.325669 C44.6946596,146.516072 44.7632947,146.760639 44.7632947,147.059844 C44.7632947,147.848419 44.3346807,148.596076 43.4776895,149.302577 C42.6204616,150.010025 41.7163726,150.362921 40.764239,150.362921 C39.8116321,150.362921 39.1319086,149.969106 38.7236485,149.180294 L33.1336801,138.33253 L30.4401101,138.33253 L30.4401101,148.160633 C30.4401101,148.786479 30.1269924,149.268991 29.5019402,149.608168 C28.8759414,149.948528 28.1280562,150.118354 27.2578114,150.118354 C26.3863831,150.118354 25.6384979,149.948528 25.0134458,149.608168 C24.387447,149.268991 24.0748026,148.786479 24.0748026,148.160633 L24.0748026,148.160633 Z" id="Fill-23" fill="#320046"></path>
                <path d="M47.9053354,148.16068 L47.9053354,122.224963 C47.9053354,121.59959 48.2172698,121.123937 48.8435053,120.797532 C49.4687941,120.471364 50.216916,120.308161 51.0876342,120.308161 C51.9581158,120.308161 52.7057643,120.471364 53.3319998,120.797532 C53.9575252,121.123937 54.270643,121.59959 54.270643,122.224963 L54.270643,148.16068 C54.270643,148.786526 53.9575252,149.269038 53.3319998,149.608216 C52.7057643,149.948576 51.9581158,150.118164 51.0876342,150.118164 C50.216916,150.118164 49.4687941,149.948576 48.8435053,149.608216 C48.2172698,149.269038 47.9053354,148.786526 47.9053354,148.16068" id="Fill-25" fill="#320046"></path>
                <path d="M58.6771777,148.16068 L58.6771777,122.265645 C58.6771777,121.640745 58.9891121,121.158233 59.6153476,120.817873 C60.2411098,120.478223 60.9892316,120.308161 61.8599499,120.308161 C63.0840202,120.308161 63.9883459,120.485555 64.5731637,120.838451 C65.1582182,121.192057 65.8180612,122.075715 66.5519827,123.488954 L73.1629563,136.089844 L73.1629563,122.224963 C73.1629563,121.59959 73.4751274,121.123937 74.1011262,120.797532 C74.7266517,120.471364 75.4747735,120.308161 76.3452551,120.308161 C77.2159733,120.308161 77.9636218,120.471364 78.5898573,120.797532 C79.2151461,121.123937 79.5285005,121.59959 79.5285005,122.224963 L79.5285005,148.16068 C79.5285005,148.786526 79.2151461,149.269038 78.5898573,149.608216 C77.9636218,149.948576 77.2159733,150.118164 76.3452551,150.118164 C74.6045286,150.118164 73.421166,149.547429 72.7954039,148.405484 L65.042722,134.295799 L65.042722,148.16068 C65.042722,148.786526 64.7296042,149.269038 64.1043154,149.608216 C63.4776066,149.948576 62.7299581,150.118164 61.8599499,150.118164 C60.9892316,150.118164 60.2411098,149.948576 59.6153476,149.608216 C58.9891121,149.269038 58.6771777,148.786526 58.6771777,148.16068" id="Fill-27" fill="#320046"></path>
                <path d="M83.9347986,148.16068 L83.9347986,122.224963 C83.9347986,121.59959 84.2469697,121.123937 84.8729685,120.797532 C85.4989673,120.471364 86.2468525,120.308161 87.1175707,120.308161 C87.9875789,120.308161 88.7354641,120.471364 89.3619363,120.797532 C89.9874617,121.123937 90.3003428,121.59959 90.3003428,122.224963 L90.3003428,132.012147 L97.9311384,121.205302 C98.3389251,120.607602 98.8962889,120.308161 99.6039398,120.308161 C100.446967,120.308161 101.283368,120.654671 102.113615,121.348163 C102.943152,122.041419 103.357803,122.782453 103.357803,123.570792 C103.357803,124.005762 103.221479,124.413769 102.950016,124.794338 L96.2581003,133.19501 L104.704706,146.121832 C104.921971,146.475437 105.031077,146.828806 105.031077,147.181938 C105.031077,147.970987 104.622581,148.698066 103.80677,149.363648 C102.99096,150.030413 102.120005,150.362968 101.195089,150.362968 C100.215738,150.362968 99.4815801,149.969153 98.9919046,149.180341 L92.0140886,138.577381 L90.3003428,140.779669 L90.3003428,148.16068 C90.3003428,148.786526 89.9874617,149.269038 89.3619363,149.608216 C88.7354641,149.948576 87.9875789,150.118164 87.1175707,150.118164 C86.2468525,150.118164 85.4989673,149.948576 84.8729685,149.608216 C84.2469697,149.269038 83.9347986,148.786526 83.9347986,148.16068" id="Fill-29" fill="#320046"></path>
                <path d="M105.602121,145.224667 C105.602121,144.464001 105.880921,143.70239 106.438522,142.941015 C106.996122,142.179876 107.642238,141.79907 108.377343,141.79907 C108.784893,141.79907 109.240251,141.964165 109.743653,142.293408 C110.247056,142.623597 110.709277,142.988556 111.131028,143.389703 C111.552778,143.791087 112.14446,144.156045 112.905835,144.485525 C113.667447,144.815715 114.47024,144.979863 115.313978,144.979863 C116.374981,144.979863 117.299187,144.755874 118.088253,144.307185 C118.877083,143.858496 119.271616,143.185818 119.271616,142.288441 C119.271616,141.391537 118.829512,140.602961 117.945303,139.923424 C117.061331,139.244359 115.986838,138.625609 114.721823,138.067882 C113.456809,137.510865 112.184931,136.885255 110.906899,136.191999 C109.627921,135.498507 108.546327,134.513379 107.662829,133.235669 C106.778147,131.957722 106.336752,130.435681 106.336752,128.667891 C106.336752,125.786065 107.356574,123.631556 109.396692,122.204835 C111.436809,120.777404 113.89915,120.063334 116.783004,120.063334 C117.489708,120.063334 118.230967,120.105435 119.006779,120.189638 C119.781882,120.273841 120.65189,120.435152 121.618461,120.673569 C122.583138,120.91175 123.372914,121.296341 123.984949,121.828759 C124.596748,122.361178 124.902765,123.005709 124.902765,123.761172 C124.902765,124.479972 124.678163,125.2255 124.229669,125.998938 C123.780701,126.77214 123.161329,127.159095 122.372973,127.159095 C122.046601,127.159095 121.352914,126.901282 120.292148,126.384475 C119.230908,125.868613 118.060799,125.609617 116.783004,125.609617 C115.421901,125.609617 114.402079,125.848035 113.722355,126.323214 C113.042395,126.79934 112.702297,127.377408 112.702297,128.056472 C112.702297,128.682319 113.021805,129.253054 113.661057,129.769153 C114.299836,130.286197 115.095529,130.727554 116.048136,131.094877 C116.999796,131.461728 118.040682,131.937617 119.170083,132.521599 C120.298538,133.106762 121.338714,133.745144 122.291084,134.4384 C123.242981,135.131656 124.039147,136.104012 124.678163,137.354049 C125.316942,138.605031 125.63716,140.032225 125.63716,141.636104 C125.63716,144.439876 124.69899,146.621823 122.82194,148.1836 C120.944654,149.745377 118.482786,150.526147 115.436338,150.526147 C112.796966,150.526147 110.498639,149.982375 108.540174,148.894831 C106.581472,147.807761 105.602121,146.584215 105.602121,145.224667" id="Fill-31" fill="#320046"></path>
                <g id="Group-35" transform="translate(128.039836, 120.250922)">
                    <mask id="mask-2" fill="white">
                        <use xlink:href="#path-1"></use>
                    </mask>
                    <g id="Clip-34"></g>
                    <path d="M0.249571178,2.54472925 C0.249571178,1.78406363 0.547541886,1.17879519 1.14324663,0.730343066 C1.73966139,0.281890947 2.50316696,0.0571918367 3.43423667,0.0571918367 C4.24128998,0.0571918367 4.91225659,0.281890947 5.44642648,0.730343066 C5.98059637,1.17879519 6.24779965,1.78406363 6.24779965,2.54472925 C6.24779965,4.17604479 6.20709197,6.96325986 6.12496661,10.9047188 C6.04355126,14.8471238 6.00308026,17.6199108 6.00308026,19.224026 C6.00308026,19.7947617 5.72972349,20.2368276 5.18371998,20.5492777 C4.63724312,20.8619642 4.05384534,21.018071 3.43423667,21.018071 C1.69161687,21.018071 0.82066198,20.4201348 0.82066198,19.224026 C0.82066198,17.6199108 0.72504628,14.8471238 0.534998243,10.9047188 C0.344240187,6.96325986 0.249571178,4.17604479 0.249571178,2.54472925 M0.127211482,26.9716513 C0.127211482,26.1024205 0.445772701,25.36115 1.08360516,24.7494953 C1.72214763,24.1376042 2.5209174,23.8320134 3.47825776,23.8320134 C4.28649443,23.8320134 4.98420504,24.1449365 5.5711529,24.7696 C6.15810076,25.3956827 6.45181136,26.1293844 6.45181136,26.9716513 C6.45181136,27.8146277 6.15810076,28.548566 5.5711529,29.1739391 C4.98420504,29.7995487 4.28649443,30.1119987 3.47825776,30.1119987 C2.55002812,30.1119987 1.75930521,29.7995487 1.10656239,29.1739391 C0.453582894,28.548566 0.127211482,27.8146277 0.127211482,26.9716513" id="Fill-33" fill="#320046" mask="url(#mask-2)"></path>
                </g>
                <polygon id="Fill-36" fill="#FEC206" points="108.377012 74.9484592 84.043526 81.9969155 65.8971335 38.3745398 100.36967 28.3893844"></polygon>
                <path d="M100.238624,28.8851416 L98.8233228,29.2950401 C98.8363398,28.5743473 98.7456942,27.8427743 98.5357657,27.1187701 C97.3474329,23.0212044 92.8622519,20.7198125 88.517891,21.9781275 C86.2299777,22.6408716 84.4381301,24.1593645 83.4273017,26.046364 C83.4104979,25.9801369 83.3946409,25.9136733 83.3754704,25.8474462 C82.4903152,22.7953227 79.1492091,21.0807502 75.9131857,22.0183368 C72.6769256,22.9556869 70.7710018,26.1896984 71.656157,29.2420584 C71.7079883,29.4206351 71.7690498,29.5940082 71.8372115,29.7631238 C71.388717,29.7870129 70.9343058,29.8615184 70.4820246,29.9925534 C67.46729,30.8655686 65.6920094,33.8781924 66.5168131,36.7214639 C66.6985776,37.3487293 66.9970217,37.9109501 67.3759344,38.403869 L65.9350721,38.8213363 L69.6226667,47.1153352 C69.6226667,47.1153352 72.0445366,43.7812735 76.4381254,42.5087669 C81.676635,40.9914566 92.7415489,42.0406832 96.164307,41.0491688 C100.05118,39.923308 101.560677,37.8645911 101.560677,37.8645911 L100.238624,28.8851416 Z" id="Fill-38" fill="#FFFFFF"></path>
                <polygon id="Fill-40" fill="#E6E6E9" points="99.2274411 29.3290997 89.0505226 31.6943535 91.5019766 41.2364969 100.174131 39.2631657"></polygon>
                <polygon id="Fill-42" fill="#E6AA09" points="108.292662 74.9729396 100.519389 77.2246612 91.7161179 41.9873467 102.259406 39.0979527"></polygon>
                <path d="M77.3500246,54.4042432 C76.8248483,54.4042432 76.328546,54.0889549 76.1231142,53.5714374 L74.2668916,48.8958037 C73.9980316,48.2191046 74.3291365,47.4522893 75.0067299,47.183833 C75.6840867,46.9156132 76.4511424,47.2460391 76.7197657,47.9234478 L78.576225,52.598845 C78.8448483,53.2757806 78.5137434,54.0423594 77.8363866,54.3108157 C77.6766327,54.3742045 77.5119086,54.4042432 77.3500246,54.4042432" id="Fill-44" fill="#FFE79C"></path>
                <path d="M86.6105472,78.2704345 C86.0853708,78.2704345 85.5890685,77.9551462 85.3836368,77.4376287 L78.7631963,60.7611703 C78.4943363,60.0839981 78.8254411,59.3176559 79.5030346,59.0489631 C80.1803913,58.7812163 80.947447,59.1114058 81.2160703,59.7883414 L87.8367475,76.4650363 C88.1053708,77.141972 87.774266,77.9085507 87.0969092,78.177007 C86.9371552,78.2403958 86.7724312,78.2704345 86.6105472,78.2704345" id="Fill-46" fill="#FFE79C"></path>
                <polygon id="Fill-48" fill="#FEC206" points="50.2667592 82.6429137 25.667017 76.5876274 31.7762449 29.7421204 66.6262742 38.3201863"></polygon>
                <path d="M64.8338821,38.3318233 C65.2059313,37.7142556 65.4932518,37.0354277 65.6738329,36.3033817 C66.6946015,32.1611127 63.9617439,27.9265988 59.5700485,26.8456779 C57.2568112,26.2763613 54.9454674,26.6961938 53.125929,27.825366 C53.1446261,27.7596119 53.1637966,27.6938579 53.1806004,27.6269212 C53.9410292,24.5412111 51.9051721,21.3871452 48.6338845,20.5817762 C45.3623602,19.7766439 42.0936759,21.6250897 41.3332471,24.7107998 C41.2887527,24.8915052 41.2546718,25.071974 41.2291112,25.2526794 C40.8284246,25.0492676 40.3976806,24.8863016 39.9404293,24.7739521 C36.8930339,24.0239301 33.8484785,25.7455983 33.1401176,28.6198547 C32.9836771,29.2542158 32.9609565,29.8904691 33.0426086,30.5066177 L31.5858892,30.1478087 L30.6297322,39.1736172 C30.6297322,39.1736172 34.395192,37.4964157 38.8368253,38.589636 C44.1326097,39.8933639 53.1903039,46.3308751 56.6506929,47.182603 C60.5796935,48.1497553 62.9170714,47.1208699 62.9170714,47.1208699 L66.2648042,38.6840096 L64.8338821,38.3318233 Z" id="Fill-50" fill="#FFFFFF"></path>
                <polygon id="Fill-52" fill="#E6E6E9" points="65.5108602 38.8111184 55.5183095 35.7601775 52.8540869 45.2450817 61.3477905 47.8813936"></polygon>
                <polygon id="Fill-54" fill="#E6AA09" points="50.4636708 82.8485015 42.6080363 80.9030803 52.6628319 46.0021049 63.2349936 48.7831703"></polygon>
                <path d="M43.1552469,35.2750166 C43.1782041,35.278328 43.2042381,35.2849507 43.2321654,35.2946482 C43.2584361,35.3036362 43.2849434,35.3114415 43.3116874,35.3183008 L46.3858268,36.0747089 L50.0729481,36.9824934 L62.2648965,39.9832908 L63.2646013,40.2292772 L62.8944455,41.1621333 L61.2647185,45.2696331 C60.9120764,45.3285279 60.4536417,45.3767791 59.8967513,45.3767791 C59.0310032,45.3767791 58.1174472,45.2599355 57.1814074,45.0293233 C55.9272797,44.7208942 53.2079124,43.1934133 50.5775339,41.7158392 C48.0955492,40.3219952 45.2822228,38.7420057 42.7604771,37.64098 C41.4557015,37.0711904 40.345944,36.6773756 39.3673031,36.4363563 C39.3282521,36.4268952 39.2894378,36.4181438 39.2503869,36.4093924 L39.1945322,36.39662 C38.0712844,36.1347864 36.9049622,36.0016226 35.728463,36.0016226 C34.879282,36.0016226 34.0248942,36.0687958 33.1757132,36.2019596 L33.1948837,36.0207812 L33.5406622,33.3719334 L33.598647,32.9272657 L35.0693301,33.2891496 L43.0674414,35.2579868 C43.0963154,35.2650826 43.1256628,35.2707592 43.1552469,35.2750166 L43.1552469,35.2750166 Z M42.2528145,27.2199083 C42.8866236,26.8904285 43.3251777,26.2719146 43.4260002,25.5649402 C43.442094,25.450462 43.4629211,25.3416603 43.4875351,25.2413735 C43.7078772,24.3475441 44.2929317,23.5932647 45.1345392,23.1171391 C45.7212504,22.7855305 46.3952937,22.6102652 47.0842475,22.6102652 C47.4233992,22.6102652 47.766101,22.6523667 48.1031227,22.7351506 C50.1813441,23.246755 51.4927466,25.2030564 51.0260284,27.0962055 C51.0191649,27.123879 51.011118,27.1508429 51.0033078,27.1782799 L50.9931309,27.2130491 C50.7417847,28.0879565 51.0608192,29.0449381 51.7876405,29.5939136 C52.17034,29.8834206 52.6458151,30.0428387 53.125787,30.0428387 C53.5394906,30.0428387 53.9442006,29.9276509 54.295896,29.7095745 C55.2406927,29.1229915 56.3516335,28.8133798 57.5089622,28.8133798 C58.0241982,28.8133798 58.538961,28.875586 59.0392867,28.9988157 C60.6115023,29.3860077 61.9423119,30.3198099 62.7867595,31.6285049 C63.5128708,32.7534196 63.7997179,34.038462 63.6132199,35.2948848 L35.5971098,28.3989873 C35.8638397,27.9377628 36.2595562,27.5484421 36.7558585,27.267923 C37.2796148,26.9717932 37.8817097,26.8149769 38.4970582,26.8149769 C38.8011824,26.8149769 39.1081467,26.8530575 39.4099042,26.9270899 C39.6915445,26.9963918 39.9651379,27.0980977 40.2233476,27.2291328 C40.5336253,27.3868952 40.8815339,27.4701522 41.2292059,27.4701522 C41.5842146,27.4701522 41.9380401,27.3835839 42.2528145,27.2199083 L42.2528145,27.2199083 Z M28.1234648,74.9086284 L32.563678,40.8634018 C33.3132199,40.6621187 34.4376511,40.4395483 35.7431367,40.4395483 C36.6259252,40.4395483 37.4885966,40.5417273 38.3063002,40.7427738 C40.9409387,41.3910899 44.9042568,43.6172668 48.4008567,45.5809005 C51.5587782,47.3543678 54.2805122,48.8830313 56.1196944,49.3357409 C57.4008028,49.6510292 58.6698409,49.8111569 59.8913078,49.8111569 C59.9343822,49.8111569 59.9772199,49.8109204 60.0202943,49.8104473 L48.8713617,80.0154478 L28.1234648,74.9086284 Z M95.5467337,38.9193997 C94.3065697,39.2786817 91.1872258,39.3146336 88.1705978,39.3496394 C83.8752281,39.3993097 79.007111,39.4556027 75.8205521,40.3787613 C73.4973746,41.051676 71.6553523,42.2108869 70.3411098,43.270284 L70.2658479,43.1004588 L69.0685216,40.222418 L98.413548,31.722642 L99.2030875,37.0870376 C98.5475046,37.6286807 97.3788157,38.3886367 95.5467337,38.9193997 L95.5467337,38.9193997 Z M73.7082498,30.9548806 C74.0921326,30.352687 74.1624244,29.598171 73.8959311,28.9358999 C73.8530934,28.8299366 73.8168825,28.7253924 73.7877718,28.6248691 C73.5314554,27.7407372 73.6606786,26.7951087 74.1513008,25.9623029 C74.6667735,25.087632 75.5116944,24.4433369 76.5308063,24.1481532 C76.9194226,24.0355671 77.3165591,23.9785645 77.7106189,23.9785645 C78.3399311,23.9785645 78.9628532,24.1275755 79.5124068,24.4095138 C80.3727114,24.8511066 80.98806,25.581497 81.244613,26.4661019 C81.2519499,26.4918832 81.25763,26.5164818 81.2637835,26.5406074 L81.2741971,26.5822359 C81.4947759,27.4661312 82.2502346,28.1352615 83.1538503,28.247138 C83.2433125,28.2584913 83.3372715,28.2644044 83.4302838,28.2644044 C84.248224,28.2644044 84.9968192,27.8154792 85.3837788,27.0928942 C86.1484677,25.6649905 87.5159616,24.5772103 89.1355117,24.1081804 C89.7257729,23.9369361 90.3299979,23.8501312 90.9313828,23.8501312 C91.8958233,23.8501312 92.852217,24.0793243 93.6969012,24.5126388 C94.8883107,25.1240569 95.7796194,26.0940475 96.246811,27.2750187 L68.5341151,35.3019805 C68.5357718,33.9008042 69.5584337,32.5689298 71.0994086,32.1221333 C71.3774988,32.0417147 71.6655292,31.993227 71.9556897,31.9776163 C72.6692574,31.9390627 73.3246036,31.5568377 73.7082498,30.9548806 L73.7082498,30.9548806 Z M85.3310008,79.3148597 L72.1410043,47.607923 C73.0074624,46.7379826 74.698961,45.3214321 77.055746,44.6385834 C79.6634039,43.8833578 84.2103564,43.8308492 88.2221924,43.7844902 C91.8383119,43.7423887 94.9616792,43.7062003 96.7821643,43.1789852 C98.1046903,42.7960507 99.315507,42.2804253 100.3971,41.6410972 L105.854295,73.3705038 L85.3310008,79.3148597 Z M110.563842,74.5727623 L102.556501,28.013924 C102.449761,27.3925718 102.081735,26.8440695 101.546856,26.5096226 C101.242021,26.3189832 100.897189,26.2056875 100.540524,26.1782505 C99.6343049,24.0774321 97.8897917,21.6785917 95.7237647,20.567159 C94.254265,19.8131161 92.5975574,19.4143343 90.9330395,19.4143343 C89.9141643,19.4143343 88.893869,19.560507 87.9003178,19.8478853 C86.3569762,20.2951548 84.9395445,21.0766346 83.749555,22.1298822 C83.1242662,21.4593327 82.3740143,20.8921448 81.539507,20.4640339 C80.3653746,19.8613672 79.0421385,19.5427676 77.7129856,19.5427676 C76.9007255,19.5427676 76.0870453,19.659138 75.2956124,19.8883311 C73.1840202,20.4999858 71.4196265,21.8576414 70.3271461,23.7115274 C69.5276663,25.0684735 69.152777,26.5630773 69.2266189,28.0756571 C68.3061994,28.4252417 67.4655386,28.9347173 66.7363506,29.5830334 C66.6651121,29.4612228 66.5919803,29.3417775 66.5162451,29.2246974 C65.0552656,26.960913 62.7768192,25.3513578 60.100763,24.6923981 C59.2558421,24.4844923 58.3855972,24.379002 57.5134589,24.379002 C56.787111,24.379002 56.0669165,24.4513788 55.361869,24.5951862 C54.6814355,21.6135473 52.2995632,19.2002788 49.1645989,18.4284965 C48.4791953,18.2600904 47.778408,18.1744682 47.0816441,18.1744682 C45.6306048,18.1744682 44.2015761,18.5488879 42.9488684,19.2572814 C41.5778245,20.0330847 40.5054613,21.1397869 39.8127208,22.4863259 C39.3748766,22.4151318 38.9339557,22.3794164 38.4944548,22.3794164 C37.1167841,22.3794164 35.7597038,22.7349141 34.5701877,23.4078288 C32.8888661,24.3586608 31.6749727,25.8485342 31.1124021,27.636193 C30.9254308,27.6953243 30.7422463,27.7785813 30.5671086,27.8840716 C30.0928169,28.1697942 29.5020822,28.7535389 29.3794859,29.9110941 L23.4666962,76.3010533 C23.3201959,77.421474 24.0382603,78.4704641 25.1361842,78.7410491 L49.7361631,84.7958623 C49.9091707,84.8386734 50.0880951,84.8606702 50.2674929,84.8606702 C51.1921725,84.8606702 52.0283365,84.2776352 52.3487911,83.4102966 L66.3962521,45.3509978 L81.9943916,82.8483123 C82.3396968,83.6782799 83.14391,84.2144829 84.0432656,84.2144829 C84.2527208,84.2144829 84.4609926,84.1849172 84.6621643,84.1264954 L108.994703,77.0782757 C110.080793,76.7639334 110.755783,75.6867969 110.563842,74.5727623 L110.563842,74.5727623 Z" id="Fill-56" fill="#320046"></path>
                <path d="M34.3361896,49.5233528 C34.272288,49.5233528 34.2076764,49.5186223 34.1428281,49.5091613 C33.4216869,49.4034344 32.9230179,48.733358 33.0290472,48.0126652 L33.7608387,43.0359347 C33.866868,42.3154784 34.5373612,41.8161733 35.2582657,41.9230828 C35.9791702,42.0288096 36.4778393,42.698886 36.3720466,43.4195789 L35.6402552,48.3963094 C35.5439295,49.0517212 34.9801755,49.5233528 34.3361896,49.5233528" id="Fill-58" fill="#FFE79C"></path>
                <path d="M30.4156145,74.8195529 C30.3517129,74.8195529 30.287338,74.8148224 30.2222531,74.8053614 C29.5013486,74.6996345 29.0024429,74.0295581 29.1087088,73.3091018 L31.7184968,55.5583452 C31.8242894,54.8378889 32.4950193,54.3383473 33.2156872,54.4452567 C33.9368284,54.5512201 34.4352607,55.2212965 34.3294681,55.9417528 L31.7196801,73.6925095 C31.6233544,74.3479213 31.0596005,74.8195529 30.4156145,74.8195529" id="Fill-60" fill="#FFE79C"></path>
                <g id="Group-64" transform="translate(64.374927, 0.096029)">
                    <mask id="mask-4" fill="white">
                        <use xlink:href="#path-3"></use>
                    </mask>
                    <g id="Clip-63"></g>
                    <path d="M2.32992267,0.14044877 C1.10632572,0.14044877 0.110881078,1.13527452 0.110881078,2.35811073 L0.110881078,13.986881 C0.110881078,15.2097172 1.10632572,16.204543 2.32992267,16.204543 C3.55351963,16.204543 4.54872759,15.2097172 4.54872759,13.986881 L4.54872759,2.35811073 C4.54872759,1.13527452 3.55351963,0.14044877 2.32992267,0.14044877" id="Fill-62" fill="#320046" mask="url(#mask-4)"></path>
                </g>
                <path d="M53.5269943,6.94973061 C53.1069005,6.48259299 52.505279,6.21484626 51.8762034,6.21484626 C51.3278332,6.21484626 50.8012368,6.41636588 50.39345,6.78298022 C49.4834442,7.60064846 49.4086557,9.00537268 50.2265959,9.91457624 L57.4399011,17.9344423 C57.8602315,18.4018164 58.4618531,18.6697997 59.090692,18.6697997 C59.6385889,18.6697997 60.1654219,18.467807 60.5732087,18.1014292 C61.0143663,17.7054857 61.2744694,17.1617139 61.3059468,16.5701639 C61.3374243,15.9786139 61.1364893,15.4102434 60.7405361,14.9695967 L53.5269943,6.94973061 Z" id="Fill-65" fill="#320046"></path>
                <path d="M82.1264785,6.20850738 C81.7172717,5.83645296 81.1871252,5.63138545 80.6337849,5.63138545 C80.0099161,5.63138545 79.4113713,5.89582083 78.9919876,6.35704532 L73.2739794,12.6391594 C72.8751862,13.0774409 72.6709378,13.6446288 72.6991018,14.2361788 C72.7270292,14.8279653 72.9840555,15.3733928 73.4226097,15.771938 C73.8318165,16.1439925 74.361963,16.34906 74.9150667,16.34906 C75.5389354,16.34906 76.1374803,16.0846246 76.5571006,15.6236366 L82.2751088,9.3410495 C83.0982559,8.43657645 83.0317509,7.03137917 82.1264785,6.20850738" id="Fill-67" fill="#320046"></path>
            </g>
        </g>
    </g>
</svg>